<svg width="148" height="45" viewBox="0 0 148 45" fill="none" xmlns="http://www.w3.org/2000/svg">
<path d="M148 38.9183C148 42.2761 145.072 45 141.459 45H6.54245C2.9296 45 0 42.2761 0 38.9183V6.08092C0 2.72311 2.9296 0 6.54245 0H141.459C145.072 0 148 2.72311 148 6.08092V38.9183Z" fill="#231F20"/>
<path d="M38.5943 29.7448C37.8108 31.3591 37.4357 32.0795 36.4272 33.5061C35.0193 35.4983 33.0358 37.9785 30.578 37.9993C28.3933 38.018 27.8326 36.6778 24.8683 36.693C21.9041 36.708 21.285 38.0227 19.1002 38.0043C16.6422 37.9832 14.7624 35.7432 13.3547 33.7518C9.41864 28.1825 9.00741 21.6464 11.4345 18.1718C13.1599 15.7024 15.8807 14.2568 18.44 14.2568C21.0453 14.2568 22.6832 15.585 24.8373 15.585C26.9267 15.585 28.2005 14.2547 31.2123 14.2547C33.4891 14.2547 35.9016 15.4068 37.6207 17.4C31.9887 20.2686 32.9033 27.746 38.5943 29.7448Z" fill="white"/>
<path d="M28.9275 12.03C30.0211 10.7245 30.8529 8.87996 30.5513 6.99565C28.7641 7.11009 26.6724 8.16721 25.4512 9.54551C24.343 10.797 23.4283 12.6528 23.7845 14.4562C25.736 14.5123 27.755 13.4289 28.9275 12.03Z" fill="white"/>
<path d="M51.9232 20.6241C52.1135 21.3125 52.3189 22.0277 52.583 22.8003L54.1024 26.8907H49.778L51.2761 22.7737C51.5045 22.1063 51.7212 21.385 51.9232 20.6241ZM50.5853 18.0874L44.9471 33.5142H47.5289L49.2123 28.7773H54.6715L56.4025 33.5142H59.0558L53.3932 18.0874H50.5853Z" fill="white"/>
<path d="M65.7264 24.0191C67.9649 24.0191 68.9666 25.9463 68.9666 27.8562C68.9666 30.3197 67.6883 31.8501 65.6311 31.8501C64.2265 31.8501 63.0115 30.9615 62.6728 29.6841C62.6146 29.4864 62.5837 29.2243 62.5837 28.9287V27.0518C62.5837 26.8817 62.6246 26.6755 62.6634 26.4756C62.6759 26.4118 62.6895 26.3479 62.6995 26.2861C63.0739 24.9507 64.317 24.0191 65.7264 24.0191ZM66.3519 22.0865C64.6416 22.0865 63.2719 22.7004 62.3599 23.8667L62.2598 22.3323H59.9631L59.9767 22.5285C60.0445 23.4844 60.0726 24.5364 60.0726 26.0471V37.9379H62.5837V32.3888C63.3627 33.2553 64.6067 33.7598 66.016 33.7598C67.4838 33.7598 68.8358 33.2255 69.8211 32.2561C70.9209 31.1756 71.501 29.6224 71.501 27.7666C71.501 26.127 70.9972 24.7092 70.0423 23.6676C69.107 22.6479 67.797 22.0865 66.3519 22.0865Z" fill="white"/>
<path d="M78.6572 24.0191C80.8946 24.0191 81.8966 25.9463 81.8966 27.8562C81.8966 30.3197 80.6175 31.8501 78.5614 31.8501C77.1574 31.8501 75.9413 30.9615 75.6031 29.6841C75.5449 29.4864 75.5146 29.2243 75.5146 28.9287V27.0518C75.5146 26.8806 75.5549 26.6737 75.5946 26.4735C75.6071 26.4107 75.6196 26.3479 75.6309 26.2861C76.0039 24.9507 77.2476 24.0191 78.6572 24.0191ZM79.2822 22.0865C77.5724 22.0865 76.2028 22.7004 75.2899 23.8667L75.1898 22.3323H72.8939L72.9067 22.5285C72.9748 23.4854 73.0034 24.5364 73.0034 26.0471V37.9379H75.5146V32.3888C76.2936 33.2553 77.5367 33.7598 78.946 33.7598C80.4135 33.7598 81.7658 33.2255 82.7528 32.2561C83.8509 31.1756 84.4316 29.6224 84.4316 27.7666C84.4316 26.127 83.9269 24.7092 82.9721 23.6676C82.0373 22.6479 80.7273 22.0865 79.2822 22.0865Z" fill="white"/>
<path d="M95.4814 24.6242C93.1379 23.7804 92.3869 23.1173 92.3869 21.8914C92.3869 20.8593 93.2692 19.8185 95.2411 19.8185C96.8677 19.8185 97.9083 20.3443 98.1889 20.5062L98.4016 20.6283L99.1103 18.6804L98.9701 18.6043C98.5494 18.3751 97.3506 17.8419 95.3134 17.8419C92.1112 17.8419 89.8746 19.5991 89.8746 22.1142C89.8746 24.1425 91.2752 25.5603 94.282 26.5766C96.413 27.3168 97.2062 28.0751 97.2062 29.3753C97.2062 30.8471 95.9824 31.7602 94.0144 31.7602C92.7325 31.7602 91.4134 31.4129 90.3952 30.8064L90.1773 30.6767L89.5033 32.6694L89.6273 32.7456C90.5753 33.3342 92.3594 33.7598 93.8709 33.7598C98.1866 33.7598 99.7168 31.3138 99.7168 29.219C99.7168 27.0597 98.4901 25.7278 95.4814 24.6242Z" fill="white"/>
<path d="M104.237 19.6746L101.774 20.3933V22.3323H99.9712V24.1976H101.774V29.9118C101.774 31.2931 102.058 32.2612 102.644 32.8732C103.205 33.4449 104.067 33.7598 105.073 33.7598C106.022 33.7598 106.697 33.5854 107.014 33.481L107.155 33.4349L107.034 31.5661L106.794 31.6347C106.476 31.7253 106.15 31.7602 105.625 31.7602C104.653 31.7602 104.237 31.188 104.237 29.8445V24.1976H107.266V22.3323H104.237V19.6746Z" fill="white"/>
<path d="M113.416 23.9295C115.675 23.9295 116.703 25.9762 116.703 27.879C116.703 30.2186 115.3 31.917 113.368 31.917H113.344C111.44 31.917 110.057 30.2472 110.057 27.9465C110.057 25.9472 111.096 23.9295 113.416 23.9295ZM113.489 22.0865C109.975 22.0865 107.522 24.5243 107.522 28.0124C107.522 31.3966 109.896 33.7598 113.296 33.7598H113.32C116.194 33.7598 119.287 31.8984 119.287 27.8114C119.287 26.15 118.733 24.7226 117.686 23.6832C116.633 22.6392 115.181 22.0865 113.489 22.0865Z" fill="white"/>
<path d="M126.978 22.1952L126.827 22.1595C126.606 22.1081 126.425 22.0865 126.203 22.0865C124.889 22.0865 123.71 22.8056 123.054 23.9656L122.981 22.3323H120.727L120.742 22.5285C120.809 23.4524 120.836 24.4898 120.836 25.8894L120.813 33.5142H123.324V27.566C123.324 27.2419 123.348 26.9357 123.393 26.661C123.676 25.2323 124.714 24.3089 126.035 24.3089C126.292 24.3089 126.495 24.3284 126.709 24.3482L126.978 24.3737V22.1952Z" fill="white"/>
<path d="M132.456 23.8403C133.22 23.8403 133.841 24.0603 134.299 24.4937C135.021 25.1772 135.148 26.1837 135.164 26.6667H129.437C129.67 25.3188 130.577 23.8403 132.456 23.8403ZM132.623 22.0644C129.28 22.0644 126.946 24.5472 126.946 28.102C126.946 31.525 129.268 33.7376 132.863 33.7376C134.754 33.7376 136.069 33.3518 136.839 33.0288L136.99 32.9652L136.508 31.2262L136.298 31.3045C135.614 31.5634 134.704 31.8276 133.152 31.8276C132.061 31.8276 129.545 31.4931 129.391 28.4435L137.496 28.4662L137.529 28.317C137.58 28.0799 137.604 27.7602 137.604 27.3429C137.604 24.908 136.3 22.0644 132.623 22.0644Z" fill="white"/>
<path d="M46.0867 14.0166C46.3715 14.0599 46.786 14.0599 47.2265 14.0599C49.635 14.0704 50.9428 12.9334 50.9428 10.9618C50.9558 9.21775 49.7902 8.14506 47.4078 8.14506C46.8254 8.14506 46.3845 8.18884 46.0867 8.24263V14.0166ZM44.9471 7.54939C45.6467 7.46264 46.4626 7.39777 47.3556 7.39777C48.9746 7.39777 50.1272 7.70128 50.8911 8.29721C51.6809 8.89262 52.1345 9.74829 52.1345 10.9294C52.1345 12.121 51.6809 13.0956 50.8784 13.7674C50.0494 14.4499 48.7025 14.8182 47.0064 14.8182C46.1905 14.8182 45.5301 14.7966 44.9471 14.7315V7.54939Z" fill="white"/>
<path d="M56.2119 14.1572C57.2995 14.1572 58.1157 13.3015 58.1157 12.1099C58.1157 11.2215 57.5847 10.1059 56.238 10.1059C54.9038 10.1059 54.3212 11.1458 54.3212 12.1426C54.3212 13.2907 55.0982 14.1572 56.1989 14.1572H56.2119ZM56.173 14.8723C54.4894 14.8723 53.1688 13.8326 53.1688 12.1753C53.1688 10.4202 54.5543 9.39099 56.2763 9.39099C58.0768 9.39099 59.2936 10.4848 59.2936 12.0774C59.2936 14.0274 57.6751 14.8723 56.1864 14.8723H56.173Z" fill="white"/>
<path d="M61.0966 9.50991L61.9381 12.1645C62.1063 12.7491 62.2751 13.3015 62.3914 13.8434H62.4302C62.5727 13.3123 62.7797 12.7491 62.9871 12.1753L64.0101 9.50991H64.9686L65.94 12.1315C66.1726 12.7491 66.3542 13.3123 66.4966 13.8434H66.5354C66.639 13.3123 66.8075 12.7599 67.0146 12.1426L67.9076 9.50991H69.0347L67.0146 14.7531H65.9786L65.0206 12.251C64.8004 11.655 64.6189 11.135 64.4631 10.5175H64.4376C64.2821 11.1458 64.0881 11.6983 63.8674 12.2618L62.8578 14.7531H61.8217L59.9307 9.50991H61.0966Z" fill="white"/>
<path d="M70.1751 10.9294C70.1751 10.3767 70.1621 9.94368 70.1229 9.50991H71.1334L71.1978 10.3661H71.2239C71.5348 9.87855 72.2596 9.39099 73.2956 9.39099C74.1631 9.39099 75.5098 9.82423 75.5098 11.6226V14.7531H74.3711V11.7307C74.3711 10.8858 73.9946 10.1712 72.92 10.1712C72.1822 10.1712 71.5989 10.6153 71.3924 11.1458C71.3405 11.265 71.3144 11.4383 71.3144 11.5902V14.7531H70.1751V10.9294Z" fill="white"/>
<path d="M77.3619 7.0621H78.5015V14.7531H77.3619V7.0621Z" fill="white"/>
<path d="M82.9817 14.1572C84.0696 14.1572 84.8858 13.3015 84.8858 12.1099C84.8858 11.2215 84.3547 10.1059 83.0084 10.1059C81.6742 10.1059 81.0912 11.1458 81.0912 12.1426C81.0912 13.2907 81.8682 14.1572 82.9692 14.1572H82.9817ZM82.9434 14.8723C81.2603 14.8723 79.9395 13.8326 79.9395 12.1753C79.9395 10.4202 81.3241 9.39099 83.0472 9.39099C84.8466 9.39099 86.0639 10.4848 86.0639 12.0774C86.0639 14.0274 84.4452 14.8723 82.9562 14.8723H82.9434Z" fill="white"/>
<path d="M90.8046 12.0774C89.5612 12.0558 88.1499 12.2401 88.1499 13.2582C88.1499 13.8866 88.6418 14.1682 89.2117 14.1682C90.0403 14.1682 90.5714 13.735 90.7524 13.2907C90.7918 13.1934 90.8046 13.0847 90.8046 12.9874V12.0774ZM91.9177 13.4966C91.9177 13.9515 91.9438 14.3953 92.0085 14.7531H90.9853L90.8817 14.0926H90.8434C90.5067 14.5042 89.8199 14.8723 88.9269 14.8723C87.6582 14.8723 87.0103 14.125 87.0103 13.3664C87.0103 12.0991 88.3567 11.4058 90.7782 11.4166V11.3083C90.7782 10.8753 90.6363 10.0845 89.3541 10.0953C88.7578 10.0953 88.1499 10.2356 87.7096 10.4848L87.4503 9.84612C87.9683 9.57531 88.7323 9.39099 89.5226 9.39099C91.4519 9.39099 91.9177 10.4848 91.9177 11.5361V13.4966Z" fill="white"/>
<path d="M98.0175 11.6442C98.0175 11.5142 98.0047 11.3626 97.9653 11.2326C97.7977 10.6369 97.1758 10.1386 96.3214 10.1386C95.1427 10.1386 94.4431 11.005 94.4431 12.1537C94.4431 13.2258 95.0783 14.1028 96.2953 14.1028C97.0595 14.1028 97.7588 13.6699 97.9653 12.9658C98.0047 12.8358 98.0175 12.7056 98.0175 12.5542V11.6442ZM99.1568 7.0621V13.3988C99.1568 13.8647 99.1707 14.3953 99.2087 14.7531H98.186L98.1344 13.8434H98.1083C97.7588 14.4282 97.0076 14.8723 95.9846 14.8723C94.4692 14.8723 93.2908 13.8001 93.2908 12.2074C93.2777 10.4523 94.5861 9.39099 96.1007 9.39099C97.0726 9.39099 97.7199 9.77044 97.992 10.1818H98.0175V7.0621H99.1568Z" fill="white"/>
<path d="M106.383 14.1572C107.471 14.1572 108.287 13.3015 108.287 12.1099C108.287 11.2215 107.756 10.1059 106.409 10.1059C105.075 10.1059 104.493 11.1458 104.493 12.1426C104.493 13.2907 105.27 14.1572 106.37 14.1572H106.383ZM106.344 14.8723C104.661 14.8723 103.34 13.8326 103.34 12.1753C103.34 10.4202 104.726 9.39099 106.448 9.39099C108.249 9.39099 109.465 10.4848 109.465 12.0774C109.465 14.0274 107.846 14.8723 106.358 14.8723H106.344Z" fill="white"/>
<path d="M110.904 10.9294C110.904 10.3767 110.89 9.94368 110.851 9.50991H111.862L111.927 10.3661H111.952C112.263 9.87855 112.988 9.39099 114.024 9.39099C114.892 9.39099 116.239 9.82423 116.239 11.6226V14.7531H115.099V11.7307C115.099 10.8858 114.724 10.1712 113.648 10.1712C112.911 10.1712 112.327 10.6153 112.12 11.1458C112.069 11.265 112.043 11.4383 112.043 11.5902V14.7531H110.904V10.9294Z" fill="white"/>
<path d="M122.209 8.2537V9.50992H123.84V10.2356H122.209V13.0634C122.209 13.7131 122.429 14.0815 123.064 14.0815C123.374 14.0815 123.556 14.0599 123.724 14.0166L123.776 14.7423C123.556 14.8072 123.206 14.8723 122.765 14.8723C122.235 14.8723 121.807 14.7207 121.535 14.4717C121.224 14.179 121.095 13.7131 121.095 13.0955V10.2356H120.124V9.50992H121.095V8.54614L122.209 8.2537Z" fill="white"/>
<path d="M125.123 7.0621H126.262V10.3334H126.288C126.469 10.0626 126.754 9.81368 127.104 9.6618C127.441 9.48882 127.841 9.39099 128.27 9.39099C129.111 9.39099 130.458 9.82423 130.458 11.6334V14.7531H129.319V11.7418C129.319 10.8858 128.943 10.1818 127.868 10.1818C127.13 10.1818 126.56 10.6153 126.34 11.135C126.275 11.265 126.262 11.4058 126.262 11.5902V14.7531H125.123V7.0621Z" fill="white"/>
<path d="M136.286 11.6118C136.298 11.0158 135.988 10.0626 134.718 10.0626C133.553 10.0626 133.061 10.951 132.97 11.6118H136.286ZM132.957 12.2942C132.984 13.5831 133.955 14.1142 135.094 14.1142C135.91 14.1142 136.415 13.9947 136.83 13.8539L137.037 14.5255C136.635 14.6772 135.936 14.8615 134.939 14.8615C133.022 14.8615 131.857 13.7888 131.857 12.2185C131.857 10.6261 132.984 9.38018 134.809 9.38018C136.855 9.38018 137.386 10.8858 137.386 11.8501C137.386 12.045 137.374 12.1969 137.348 12.305L132.957 12.2942Z" fill="white"/>
</svg>
