<svg width="150" height="38" viewBox="0 0 150 38" fill="none" xmlns="http://www.w3.org/2000/svg">
<path d="M11.9924 28.5H6.89828V2.736C5.76625 3.31867 4.89365 4.15467 4.28047 5.244C3.66729 6.308 3.3607 7.6 3.3607 9.12C3.3607 9.90533 3.40787 10.5513 3.5022 11.058C3.62012 11.5647 3.73804 11.9827 3.85596 12.312C3.99746 12.616 4.13897 12.8693 4.28047 13.072C4.42197 13.2493 4.5281 13.414 4.59885 13.566C3.18382 13.566 2.06359 13.224 1.23815 12.54C0.412718 11.8307 0 10.64 0 8.968C0 7.752 0.294798 6.612 0.884395 5.548C1.47399 4.45867 2.25226 3.50867 3.2192 2.698C4.20972 1.862 5.32995 1.20334 6.5799 0.722002C7.85343 0.240667 9.16233 0 10.5066 0C10.766 0 11.0137 0.0126673 11.2495 0.0380018C11.5089 0.0380018 11.7566 0.0506683 11.9924 0.0760013V28.5Z" fill="black"/>
<path d="M24.3145 17.024C24.3145 15.504 24.1494 14.4273 23.8192 13.794C23.5126 13.1353 23.0646 12.806 22.475 12.806C22.1212 12.806 21.8146 12.9073 21.5552 13.11C21.3194 13.3127 21.1189 13.5787 20.9538 13.908C20.7887 14.2373 20.659 14.6173 20.5647 15.048C20.4703 15.4533 20.4114 15.8713 20.3878 16.302V28.5H15.2937V9.5H20.3878V11.476C20.9302 10.5893 21.5434 10.0193 22.2273 9.766C22.9113 9.48733 23.5598 9.348 24.173 9.348C24.8333 9.348 25.4583 9.462 26.0479 9.69C26.6611 9.918 27.1917 10.3107 27.6398 10.868C28.1115 11.4 28.4771 12.122 28.7365 13.034C28.9959 13.9207 29.1256 15.0227 29.1256 16.34C29.1256 16.6693 29.1138 17.0873 29.0902 17.594C29.0902 18.0753 29.0784 18.5693 29.0549 19.076C29.0313 19.5827 29.0077 20.0767 28.9841 20.558C28.9841 21.0393 28.9841 21.4447 28.9841 21.774C28.9841 22.8633 29.0902 23.6867 29.3025 24.244C29.5147 24.776 29.9864 25.042 30.7175 25.042C31.5194 25.042 32.0736 24.7253 32.3802 24.092C32.7104 23.4587 32.9698 22.6607 33.1585 21.698H34.6442C34.4556 23.218 34.1726 24.4467 33.7952 25.384C33.4179 26.296 32.9934 27.0053 32.5217 27.512C32.05 27.9933 31.543 28.3227 31.0005 28.5C30.4581 28.652 29.9275 28.728 29.4086 28.728C27.5927 28.728 26.272 28.082 25.4465 26.79C24.6447 25.498 24.2437 23.7753 24.2437 21.622C24.2437 21.394 24.2437 21.0773 24.2437 20.672C24.2673 20.2413 24.2791 19.798 24.2791 19.342C24.2791 18.886 24.2791 18.4553 24.2791 18.05C24.3027 17.6193 24.3145 17.2773 24.3145 17.024Z" fill="black"/>
<path d="M48.1536 21.698C47.4225 22.8887 46.6443 23.864 45.8188 24.624C44.9934 25.384 44.2269 26.03 43.5194 26.562C42.9062 27.3473 42.1398 27.9047 41.22 28.234C40.3002 28.5633 39.4158 28.728 38.5668 28.728C37.5291 28.728 36.6211 28.5507 35.8429 28.196C35.0646 27.8413 34.416 27.398 33.8972 26.866C33.3784 26.3087 32.9892 25.7007 32.7298 25.042C32.4704 24.358 32.3407 23.712 32.3407 23.104C32.3407 22.42 32.4586 21.8373 32.6944 21.356C32.9538 20.8747 33.2722 20.5327 33.6496 20.33C34.3335 18.43 34.8995 16.5553 35.3476 14.706C35.8193 12.8313 36.1495 10.9567 36.3381 9.082L41.4322 8.322C42.0218 10.7793 42.5171 12.7807 42.918 14.326C43.3189 15.846 43.6373 17.1253 43.8732 18.164C44.109 19.1773 44.2741 20.064 44.3684 20.824C44.4628 21.584 44.5099 22.4327 44.5099 23.37V23.598C45.359 22.9647 46.0783 22.3313 46.6679 21.698H48.1536ZM36.4443 22.04C36.4443 22.42 36.3381 22.7747 36.1259 23.104C35.9136 23.408 35.607 23.56 35.2061 23.56C35.0174 23.56 34.817 23.5347 34.6047 23.484C34.416 23.408 34.2627 23.2687 34.1448 23.066C34.3335 23.9527 34.6283 24.624 35.0292 25.08C35.4537 25.5107 36.0551 25.726 36.8334 25.726C37.5173 25.726 38.1069 25.536 38.6022 25.156C39.0974 24.7507 39.3451 24.054 39.3451 23.066C39.3451 22.382 39.3097 21.774 39.2389 21.242C39.1682 20.6847 39.0503 20.064 38.8852 19.38C38.7437 18.696 38.5432 17.8853 38.2838 16.948C38.048 16.0107 37.7532 14.8327 37.3994 13.414C37.1636 14.63 36.8688 15.808 36.515 16.948C36.1848 18.0627 35.8311 19.228 35.4537 20.444C35.7132 20.5707 35.9372 20.7733 36.1259 21.052C36.3381 21.3053 36.4443 21.6347 36.4443 22.04Z" fill="black"/>
<path d="M51.7562 3.496V9.5H53.9141V11.02H51.7562V22.42C51.7562 23.484 51.8859 24.1933 52.1453 24.548C52.4283 24.8773 52.9118 25.042 53.5957 25.042C54.2796 25.042 54.8457 24.7253 55.2937 24.092C55.7654 23.4587 56.0366 22.6607 56.1074 21.698H57.5932C57.4045 23.2433 57.0743 24.4847 56.6026 25.422C56.131 26.334 55.6003 27.0433 55.0107 27.55C54.4211 28.0313 53.8198 28.348 53.2066 28.5C52.5934 28.652 52.051 28.728 51.5793 28.728C49.7633 28.728 48.4898 28.196 47.7587 27.132C47.0276 26.0427 46.6621 24.6113 46.6621 22.838V11.02H45.53V9.5H46.6621V4.256L51.7562 3.496Z" fill="black"/>
<path d="M70.6681 9.5V22.42C70.6681 23.484 70.7978 24.1933 71.0573 24.548C71.3403 24.8773 71.8237 25.042 72.5077 25.042C73.1916 25.042 73.7576 24.7253 74.2057 24.092C74.6774 23.4587 74.9486 22.6607 75.0193 21.698H76.5051C76.3165 23.2433 75.9863 24.4847 75.5146 25.422C75.0429 26.334 74.5123 27.0433 73.9227 27.55C73.3331 28.0313 72.7317 28.348 72.1185 28.5C71.5054 28.652 70.9629 28.728 70.4912 28.728C69.2413 28.728 68.2862 28.424 67.6258 27.816C66.989 27.1827 66.5409 26.3213 66.2815 25.232C66.0929 25.6627 65.8688 26.0933 65.6094 26.524C65.35 26.9293 65.0316 27.2967 64.6542 27.626C64.3005 27.9553 63.876 28.2213 63.3807 28.424C62.909 28.6267 62.3548 28.728 61.718 28.728C60.9634 28.728 60.2205 28.576 59.4894 28.272C58.7583 27.968 58.0861 27.474 57.473 26.79C56.8834 26.106 56.3999 25.2067 56.0225 24.092C55.6688 22.952 55.4919 21.5587 55.4919 19.912C55.4919 18.7467 55.6098 17.5433 55.8457 16.302C56.1051 15.0607 56.4942 13.9207 57.0131 12.882C57.5555 11.8433 58.2512 10.9947 59.1002 10.336C59.9728 9.652 61.0223 9.31 62.2487 9.31C62.5317 9.31 62.8383 9.33533 63.1685 9.386C63.4986 9.41133 63.817 9.5 64.1236 9.652C64.4302 9.77867 64.7132 9.98133 64.9726 10.26C65.232 10.5133 65.4325 10.868 65.574 11.324V9.5H70.6681ZM65.574 13.148C65.5504 13.0467 65.5033 12.92 65.4325 12.768C65.3618 12.5907 65.2556 12.426 65.1141 12.274C64.9726 12.0967 64.7957 11.9573 64.5835 11.856C64.3712 11.7293 64.1236 11.666 63.8406 11.666C63.2746 11.666 62.7793 11.932 62.3548 12.464C61.9539 12.9707 61.6237 13.6167 61.3643 14.402C61.1284 15.162 60.9516 16.0107 60.8336 16.948C60.7157 17.86 60.6568 18.734 60.6568 19.57C60.6568 20.9127 60.7511 21.964 60.9398 22.724C61.1285 23.4587 61.3525 24.0033 61.6119 24.358C61.8949 24.6873 62.1897 24.89 62.4963 24.966C62.8029 25.0167 63.0623 25.042 63.2746 25.042C63.534 25.042 63.7934 24.9787 64.0528 24.852C64.3359 24.7 64.5835 24.4847 64.7957 24.206C65.0316 23.9273 65.2203 23.5853 65.3618 23.18C65.5033 22.7493 65.574 22.2553 65.574 21.698V13.148Z" fill="black"/>
<path d="M89.2534 9.5V27.132C89.7487 26.9293 90.185 26.6887 90.5623 26.41C90.9397 26.1313 91.2698 25.7893 91.5528 25.384C91.8358 24.9533 92.0599 24.4467 92.225 23.864C92.4136 23.256 92.5551 22.534 92.6495 21.698H94.1353C94.0173 22.9647 93.7933 24.016 93.4631 24.852C93.1565 25.6627 92.7674 26.334 92.2957 26.866C91.8476 27.398 91.3524 27.816 90.8099 28.12C90.2911 28.424 89.7722 28.6647 89.2534 28.842V31.54C89.2534 32.908 89.1001 34.01 88.7935 34.846C88.4869 35.682 88.086 36.328 87.5907 36.784C87.1191 37.2653 86.5884 37.582 85.9988 37.734C85.4328 37.9113 84.8786 38 84.3362 38C83.6522 38 83.0037 37.8987 82.3905 37.696C81.8009 37.4933 81.2821 37.202 80.834 36.822C80.4095 36.4673 80.0675 36.024 79.8081 35.492C79.5486 34.96 79.4189 34.3647 79.4189 33.706C79.4189 33.022 79.5486 32.4013 79.8081 31.844C80.0911 31.312 80.4566 30.8433 80.9047 30.438C81.3528 30.0327 81.8599 29.678 82.4259 29.374C82.9919 29.0953 83.5697 28.8547 84.1593 28.652V25.46C83.7584 26.1693 83.2395 26.7647 82.6028 27.246C81.9896 27.7273 81.1759 27.968 80.1618 27.968C79.4307 27.968 78.6996 27.816 77.9685 27.512C77.2374 27.208 76.5771 26.7267 75.9875 26.068C75.3979 25.4093 74.9144 24.548 74.5371 23.484C74.1833 22.3947 74.0064 21.09 74.0064 19.57C74.0064 18.43 74.1244 17.2647 74.3602 16.074C74.596 14.858 74.9852 13.756 75.5276 12.768C76.0936 11.7547 76.8247 10.9313 77.7209 10.298C78.6407 9.63933 79.7609 9.31 81.0816 9.31C81.3174 9.31 81.5769 9.33533 81.8599 9.386C82.1665 9.41133 82.4613 9.48733 82.7443 9.614C83.0273 9.74067 83.2985 9.93067 83.5579 10.184C83.8173 10.4373 84.0178 10.7793 84.1593 11.21V9.5H89.2534ZM82.4613 11.666C81.8717 11.666 81.3646 11.9067 80.9401 12.388C80.5392 12.8693 80.1972 13.49 79.9142 14.25C79.6548 14.9847 79.4661 15.808 79.3482 16.72C79.2303 17.632 79.1713 18.5187 79.1713 19.38C79.1713 20.5707 79.2656 21.4953 79.4543 22.154C79.643 22.8127 79.867 23.3067 80.1264 23.636C80.3859 23.94 80.6453 24.13 80.9047 24.206C81.1641 24.2567 81.3646 24.282 81.5061 24.282C82.2608 24.282 82.8622 24.016 83.3103 23.484C83.7819 22.952 84.065 22.2807 84.1593 21.47V12.996C84.0885 12.7427 83.9117 12.464 83.6287 12.16C83.3692 11.8307 82.9801 11.666 82.4613 11.666ZM81.2938 33.402C81.2938 33.8833 81.4471 34.276 81.7537 34.58C82.0603 34.884 82.3787 35.036 82.7089 35.036C83.1334 35.036 83.4754 34.7573 83.7348 34.2C84.0178 33.6427 84.1593 32.794 84.1593 31.654V30.552C83.3339 30.9067 82.6499 31.312 82.1075 31.768C81.5651 32.2493 81.2938 32.794 81.2938 33.402Z" fill="black"/>
<path d="M97.7378 9.5V11.856C98.2566 11.1973 98.8344 10.6147 99.4712 10.108C100.108 9.576 100.804 9.31 101.558 9.31C102.006 9.31 102.407 9.41134 102.761 9.614C103.138 9.81667 103.457 10.0827 103.716 10.412C103.999 10.7413 104.212 11.1087 104.353 11.514C104.518 11.894 104.601 12.2867 104.601 12.692C104.601 13.2493 104.436 13.7687 104.105 14.25C103.799 14.706 103.28 14.934 102.549 14.934C102.006 14.934 101.629 14.8073 101.417 14.554C101.205 14.3007 101.04 14.0347 100.922 13.756C100.804 13.452 100.674 13.1733 100.532 12.92C100.415 12.6667 100.191 12.54 99.8603 12.54C99.5066 12.54 99.1528 12.692 98.7991 12.996C98.4689 13.2747 98.1151 13.6293 97.7378 14.06V28.5H92.6437V9.5H97.7378Z" fill="black"/>
<path d="M120.519 9.5V22.42C120.519 23.484 120.649 24.1933 120.908 24.548C121.191 24.8773 121.675 25.042 122.359 25.042C123.042 25.042 123.608 24.7253 124.057 24.092C124.528 23.4587 124.799 22.6607 124.87 21.698H126.356C126.167 23.2433 125.837 24.4847 125.365 25.422C124.894 26.334 124.363 27.0433 123.774 27.55C123.184 28.0313 122.583 28.348 121.969 28.5C121.356 28.652 120.814 28.728 120.342 28.728C119.092 28.728 118.137 28.424 117.477 27.816C116.84 27.1827 116.392 26.3213 116.132 25.232C115.944 25.6627 115.72 26.0933 115.46 26.524C115.201 26.9293 114.882 27.2967 114.505 27.626C114.151 27.9553 113.727 28.2213 113.232 28.424C112.76 28.6267 112.206 28.728 111.569 28.728C110.814 28.728 110.071 28.576 109.34 28.272C108.609 27.968 107.937 27.474 107.324 26.79C106.734 26.106 106.251 25.2067 105.873 24.092C105.52 22.952 105.343 21.5587 105.343 19.912C105.343 18.7467 105.461 17.5433 105.697 16.302C105.956 15.0607 106.345 13.9207 106.864 12.882C107.406 11.8433 108.102 10.9947 108.951 10.336C109.824 9.652 110.873 9.31 112.1 9.31C112.383 9.31 112.689 9.33533 113.019 9.386C113.349 9.41133 113.668 9.5 113.974 9.652C114.281 9.77867 114.564 9.98133 114.823 10.26C115.083 10.5133 115.283 10.868 115.425 11.324V9.5H120.519ZM115.425 13.148C115.401 13.0467 115.354 12.92 115.283 12.768C115.213 12.5907 115.106 12.426 114.965 12.274C114.823 12.0967 114.647 11.9573 114.434 11.856C114.222 11.7293 113.974 11.666 113.691 11.666C113.125 11.666 112.63 11.932 112.206 12.464C111.805 12.9707 111.475 13.6167 111.215 14.402C110.979 15.162 110.802 16.0107 110.685 16.948C110.567 17.86 110.508 18.734 110.508 19.57C110.508 20.9127 110.602 21.964 110.791 22.724C110.979 23.4587 111.203 24.0033 111.463 24.358C111.746 24.6873 112.041 24.89 112.347 24.966C112.654 25.0167 112.913 25.042 113.125 25.042C113.385 25.042 113.644 24.9787 113.904 24.852C114.187 24.7 114.434 24.4847 114.647 24.206C114.882 23.9273 115.071 23.5853 115.213 23.18C115.354 22.7493 115.425 22.2553 115.425 21.698V13.148Z" fill="black"/>
<path d="M142.323 17.024C142.323 15.504 142.158 14.4273 141.828 13.794C141.498 13.1353 141.05 12.806 140.484 12.806C139.8 12.806 139.293 13.1607 138.963 13.87C138.656 14.554 138.467 15.3647 138.397 16.302V28.5H133.303V15.39C133.303 15.1113 133.279 14.82 133.232 14.516C133.185 14.212 133.102 13.9333 132.984 13.68C132.89 13.4013 132.737 13.186 132.524 13.034C132.336 12.8567 132.088 12.768 131.781 12.768C131.145 12.768 130.649 13.11 130.296 13.794C129.942 14.478 129.73 15.314 129.659 16.302V28.5H124.565V9.5H129.659V11.476C130.249 10.5387 130.885 9.94333 131.569 9.69C132.277 9.43667 132.89 9.31 133.409 9.31C134.329 9.31 135.189 9.56334 135.991 10.07C136.793 10.5767 137.406 11.4 137.831 12.54C138.114 11.856 138.432 11.3113 138.786 10.906C139.14 10.4753 139.505 10.146 139.883 9.918C140.283 9.69 140.673 9.538 141.05 9.462C141.451 9.386 141.828 9.348 142.182 9.348C142.842 9.348 143.467 9.462 144.057 9.69C144.67 9.918 145.201 10.3107 145.649 10.868C146.12 11.4 146.486 12.122 146.745 13.034C147.005 13.9207 147.135 15.0227 147.135 16.34C147.135 16.6693 147.123 17.0747 147.099 17.556C147.099 18.0373 147.087 18.544 147.064 19.076C147.04 19.5827 147.017 20.0893 146.993 20.596C146.993 21.0773 146.993 21.4827 146.993 21.812C146.993 22.9267 147.123 23.75 147.382 24.282C147.642 24.7887 148.184 25.042 149.009 25.042C149.481 25.042 149.811 24.966 150 24.814C150 26.2073 149.729 27.208 149.186 27.816C148.668 28.424 147.877 28.728 146.816 28.728C145.967 28.728 145.248 28.5507 144.658 28.196C144.069 27.816 143.597 27.3093 143.243 26.676C142.889 26.0173 142.63 25.27 142.465 24.434C142.323 23.5727 142.253 22.648 142.253 21.66C142.253 21.4067 142.253 21.0773 142.253 20.672C142.276 20.2413 142.288 19.798 142.288 19.342C142.288 18.886 142.288 18.4427 142.288 18.012C142.312 17.5813 142.323 17.252 142.323 17.024Z" fill="black"/>
</svg>
