<svg width="148" height="45" viewBox="0 0 148 45" fill="none" xmlns="http://www.w3.org/2000/svg">
<path d="M148 38.9183C148 42.2765 145.071 45 141.459 45H6.54249C2.92962 45 0 42.2765 0 38.9183V6.08118C0 2.72321 2.92962 0 6.54249 0H141.459C145.071 0 148 2.72321 148 6.08118V38.9183Z" fill="#231F20"/>
<path d="M11.4296 38.759V38.7321H11.3717V38.7052H11.3428V38.6783H11.3138V38.6515H11.2849V38.6246H11.256V38.5977H11.227V38.5708H11.1981V38.517H11.1692V38.4632H11.1402V38.3825H11.1113V38.248H11.0823V9.81892H11.1113V9.65754H11.1402V9.60375H11.1692V9.52306H11.1981V9.46927H11.227V9.41548H11.256V9.38858H11.2849V9.36168H11.3138V9.30789H11.3428V9.281H11.4006V9.2541H11.4296V9.2272H11.4874V9.20031H11.5164V9.17341H11.6321V9.14652H11.6611V9.17341H11.69V9.20031H11.7189V9.2272H11.7479V9.2541H11.7768V9.281H11.8057V9.30789H11.8347V9.33479H11.8636V9.36168H11.8925V9.38858H11.9215V9.41548H11.9504V9.44237H11.9794V9.46927H12.0083V9.49616H12.0372V9.52306H12.0662V9.54996H12.0951V9.57685H12.124V9.60375H12.153V9.63064H12.1819V9.65754H12.2108V9.68444H12.2398V9.71133H12.2687V9.73823H12.2976V9.76512H12.3266V9.79202H12.3555V9.81892H12.3845V9.84581H12.4134V9.87271H12.4423V9.8996H12.5002V9.9265H12.5291V9.9534H12.5581V9.98029H12.587V10.0072H12.6159V10.0341H12.6449V10.061H12.6738V10.0879H12.7027V10.1148H12.7317V10.1417H12.7606V10.1686H12.7895V10.1955H12.8185V10.2224H12.8474V10.2493H12.8764V10.2761H12.9053V10.303H12.9342V10.3299H12.9632V10.3568H12.9921V10.3837H13.021V10.4106H13.05V10.4375H13.0789V10.4644H13.1078V10.4913H13.1368V10.5182H13.1657V10.5451H13.1946V10.572H13.2236V10.5989H13.2525V10.6258H13.2815V10.6527H13.3104V10.6796H13.3393V10.7065H13.3683V10.7334H13.3972V10.7603H13.4261V10.7872H13.4551V10.8141H13.484V10.841H13.5129V10.8679H13.5419V10.8948H13.5708V10.9217H13.5997V10.9485H13.6287V10.9754H13.6576V11.0023H13.6866V11.0292H13.7155V11.0561H13.7444V11.083H13.7734V11.1099H13.8023V11.1368H13.8312V11.1637H13.8602V11.1906H13.8891V11.2175H13.918V11.2444H13.947V11.2713H13.9759V11.2982H14.0048V11.3251H14.0338V11.352H14.0627V11.3789H14.0917V11.4058H14.1206V11.4327H14.1495V11.4596H14.1785V11.4865H14.2074V11.5134H14.2363V11.5403H14.2653V11.5672H14.2942V11.5941H14.3231V11.6209H14.3521V11.6478H14.381V11.6747H14.4099V11.7016H14.4389V11.7285H14.4678V11.7554H14.4968V11.7823H14.5257V11.8092H14.5546V11.8361H14.5836V11.863H14.6125V11.8899H14.6414V11.9168H14.6704V11.9437H14.6993V11.9706H14.7282V11.9975H14.7572V12.0244H14.7861V12.0513H14.815V12.0782H14.844V12.1051H14.8729V12.132H14.9019V12.1589H14.9308V12.1858H14.9597V12.2127H14.9887V12.2396H15.0176V12.2665H15.0465V12.2933H15.0755V12.3202H15.1044V12.3471H15.1333V12.374H15.1623V12.4009H15.1912V12.4278H15.2201V12.4547H15.2491V12.4816H15.278V12.5085H15.307V12.5354H15.3359V12.5623H15.3648V12.5892H15.3938V12.6161H15.4227V12.643H15.4516V12.6699H15.4806V12.6968H15.5095V12.7237H15.5384V12.7506H15.5674V12.7775H15.5963V12.8044H15.6252V12.8313H15.6542V12.8582H15.6831V12.8851H15.712V12.912H15.741V12.9389H15.7699V12.9658H15.7989V12.9926H15.8278V13.0195H15.8567V13.0464H15.9146V13.0733H15.9435V13.1002H15.9725V13.1271H16.0014V13.154H16.0303V13.1809H16.0593V13.2078H16.0882V13.2347H16.1171V13.2616H16.1461V13.2885H16.175V13.3154H16.204V13.3423H16.2329V13.3692H16.2618V13.3961H16.2908V13.423H16.3197V13.4499H16.3486V13.4768H16.3776V13.5037H16.4065V13.5306H16.4354V13.5575H16.4644V13.5844H16.4933V13.6113H16.5222V13.6382H16.5512V13.665H16.5801V13.6919H16.6091V13.7188H16.638V13.7457H16.6669V13.7726H16.6959V13.7995H16.7248V13.8264H16.7537V13.8533H16.7827V13.8802H16.8116V13.9071H16.8405V13.934H16.8695V13.9609H16.8984V13.9878H16.9273V14.0147H16.9563V14.0416H16.9852V14.0685H17.0142V14.0954H17.0431V14.1223H17.072V14.1492H17.101V14.1761H17.1299V14.203H17.1588V14.2299H17.1878V14.2568H17.2167V14.2837H17.2456V14.3106H17.2746V14.3374H17.3035V14.3643H17.3324V14.3912H17.3614V14.4181H17.3903V14.445H17.4193V14.4719H17.4482V14.4988H17.4771V14.5257H17.5061V14.5526H17.535V14.5795H17.5639V14.6064H17.5929V14.6333H17.6218V14.6602H17.6507V14.6871H17.6797V14.714H17.7086V14.7409H17.7375V14.7678H17.7665V14.7947H17.7954V14.8216H17.8244V14.8485H17.8533V14.8754H17.8822V14.9023H17.9112V14.9292H17.9401V14.9561H17.969V14.983H17.998V15.0098H18.0269V15.0367H18.0558V15.0636H18.0848V15.0905H18.1137V15.1174H18.1426V15.1443H18.1716V15.1712H18.2005V15.1981H18.2295V15.225H18.2584V15.2519H18.2873V15.2788H18.3163V15.3057H18.3452V15.3326H18.3741V15.3595H18.4031V15.3864H18.432V15.4133H18.4609V15.4402H18.4899V15.4671H18.5188V15.494H18.5477V15.5209H18.5767V15.5478H18.6056V15.5747H18.6345V15.6016H18.6635V15.6285H18.6924V15.6554H18.7214V15.6822H18.7503V15.7091H18.7792V15.736H18.8082V15.7629H18.8371V15.7898H18.866V15.8167H18.895V15.8436H18.9239V15.8705H18.9528V15.8974H18.9818V15.9243H19.0107V15.9512H19.0396V15.9781H19.0686V16.005H19.0975V16.0319H19.1265V16.0588H19.1554V16.0857H19.1843V16.1126H19.2133V16.1395H19.2422V16.1664H19.2711V16.1933H19.3001V16.2202H19.3579V16.2471H19.3869V16.274H19.4158V16.3009H19.4447V16.3278H19.4737V16.3546H19.5026V16.3815H19.5316V16.4084H19.5605V16.4353H19.5894V16.4622H19.6184V16.4891H19.6473V16.516H19.6762V16.5429H19.7052V16.5698H19.7341V16.5967H19.763V16.6236H19.792V16.6505H19.8209V16.6774H19.8498V16.7043H19.8788V16.7312H19.9077V16.7581H19.9367V16.785H19.9656V16.8119H19.9945V16.8388H20.0235V16.8657H20.0524V16.8926H20.0813V16.9195H20.1103V16.9464H20.1392V16.9733H20.1681V17.0002H20.1971V17.0271H20.226V17.0539H20.2549V17.0808H20.2839V17.1077H20.3128V17.1346H20.3418V17.1615H20.3707V17.1884H20.3996V17.2153H20.4286V17.2422H20.4575V17.2691H20.4864V17.296H20.5154V17.3229H20.5443V17.3498H20.5732V17.3767H20.6022V17.4036H20.6311V17.4305H20.66V17.4574H20.689V17.4843H20.7179V17.5112H20.7469V17.5381H20.7758V17.565H20.8047V17.5919H20.8337V17.6188H20.8626V17.6457H20.8915V17.6726H20.9205V17.6994H20.9494V17.7263H20.9783V17.7532H21.0073V17.7801H21.0362V17.807H21.0651V17.8339H21.0941V17.8608H21.123V17.8877H21.1519V17.9146H21.1809V17.9415H21.2098V17.9684H21.2388V17.9953H21.2677V18.0222H21.2966V18.0491H21.3256V18.076H21.3545V18.1029H21.3834V18.1298H21.4124V18.1567H21.4413V18.1836H21.4702V18.2105H21.4992V18.2374H21.5281V18.2643H21.557V18.2912H21.586V18.3181H21.6149V18.345H21.6439V18.3719H21.6728V18.3987H21.7017V18.4256H21.7307V18.4525H21.7596V18.4794H21.7885V18.5063H21.8175V18.5332H21.8464V18.5601H21.8753V18.587H21.9043V18.6139H21.9332V18.6408H21.9621V18.6677H21.9911V18.6946H22.02V18.7215H22.049V18.7484H22.0779V18.7753H22.1068V18.8022H22.1358V18.8291H22.1647V18.856H22.1936V18.8829H22.2226V18.9098H22.2515V18.9367H22.2804V18.9636H22.3094V18.9905H22.3383V19.0174H22.3672V19.0443H22.3962V19.0711H22.4251V19.098H22.4541V19.1249H22.483V19.1518H22.5119V19.1787H22.5409V19.2056H22.5698V19.2325H22.5987V19.2594H22.6277V19.2863H22.6566V19.3132H22.6855V19.3401H22.7145V19.367H22.7723V19.3939H22.8013V19.4208H22.8302V19.4477H22.8592V19.4746H22.8881V19.5015H22.917V19.5284H22.946V19.5553H22.9749V19.5822H23.0038V19.6091H23.0328V19.636H23.0617V19.6629H23.0906V19.6898H23.1196V19.7167H23.1485V19.7435H23.1774V19.7704H23.2064V19.7973H23.2353V19.8242H23.2643V19.8511H23.2932V19.878H23.3221V19.9049H23.3511V19.9318H23.38V19.9587H23.4089V19.9856H23.4379V20.0125H23.4668V20.0394H23.4957V20.0663H23.5247V20.0932H23.5536V20.1201H23.5825V20.147H23.6115V20.1739H23.6404V20.2008H23.6694V20.2277H23.6983V20.2546H23.7272V20.2815H23.7562V20.3084H23.7851V20.3353H23.814V20.3622H23.843V20.3891H23.8719V20.4159H23.9008V20.4428H23.9298V20.4697H23.9587V20.4966H23.9876V20.5235H24.0166V20.5504H24.0455V20.5773H24.0744V20.6042H24.1034V20.6311H24.1323V20.658H24.1613V20.6849H24.1902V20.7118H24.2191V20.7387H24.2481V20.7656H24.277V20.7925H24.3059V20.8194H24.3349V20.8463H24.3638V20.8732H24.3927V20.9001H24.4217V20.927H24.4506V20.9539H24.4795V20.9808H24.5085V21.0077H24.5374V21.0346H24.5664V21.0615H24.5953V21.0883H24.6242V21.1152H24.6532V21.1421H24.6821V21.169H24.711V21.1959H24.74V21.2228H24.7689V21.2497H24.7978V21.2766H24.8268V21.3035H24.8557V21.3304H24.8846V21.3573H24.9136V21.3842H24.9425V21.4111H24.9715V21.438H25.0004V21.4649H25.0293V21.4918H25.0583V21.5187H25.0872V21.5456H25.1161V21.5725H25.1451V21.5994H25.174V21.6263H25.2029V21.6532H25.2319V21.6801H25.2608V21.707H25.2897V21.7339H25.3187V21.7608H25.3476V21.7876H25.3766V21.8145H25.4055V21.8414H25.4344V21.8683H25.4634V21.8952H25.4923V21.9221H25.5212V21.949H25.5502V21.9759H25.5791V22.0028H25.608V22.0297H25.637V22.0566H25.6659V22.0835H25.6948V22.1104H25.7238V22.1373H25.7527V22.1642H25.7817V22.1911H25.8106V22.218H25.8395V22.2449H25.8685V22.2718H25.8974V22.2987H25.9263V22.3256H25.9553V22.3525H25.9842V22.3794H26.0131V22.4063H26.0421V22.4332H26.071V22.46H26.0999V22.4869H26.1289V22.5138H26.1578V22.5407H26.2157V22.5676H26.2446V22.5945H26.2736V22.6214H26.3025V22.6483H26.3314V22.6752H26.3604V22.7021H26.3893V22.729H26.4182V22.7559H26.4472V22.7828H26.4761V22.8097H26.505V22.8366H26.534V22.8635H26.5629V22.8904H26.5918V22.9173H26.6208V22.9442H26.6497V22.9711H26.6787V22.998H26.7076V23.0249H26.7365V23.0518H26.7655V23.0787H26.7944V23.1056H26.8233V23.1324H26.8523V23.1593H26.8812V23.1862H26.9101V23.2131H26.9391V23.24H26.968V23.2669H26.9969V23.2938H27.0259V23.3207H27.0548V23.3476H27.0838V23.3745H27.1127V23.4014H27.1416V23.4283H27.1706V23.4552H27.1995V23.4821H27.2284V23.509H27.2574V23.5359H27.2863V23.5628H27.3152V23.5897H27.3442V23.6166H27.3731V23.6435H27.402V23.6704H27.431V23.6973H27.4599V23.7242H27.4889V23.7511H27.5178V23.778H27.5467V23.8048H27.5757V23.8317H27.6046V23.8586H27.6335V23.9393H27.6046V23.9662H27.5757V23.9931H27.5467V24.02H27.5178V24.0469H27.4889V24.0738H27.4599V24.1007H27.431V24.1276H27.402V24.1545H27.3731V24.1814H27.3442V24.2083H27.3152V24.2352H27.2863V24.2621H27.2574V24.289H27.2284V24.3159H27.1995V24.3428H27.1706V24.3697H27.1416V24.3966H27.1127V24.4235H27.0838V24.4504H27.0548V24.4772H27.0259V24.5041H26.9969V24.531H26.968V24.5579H26.9391V24.5848H26.9101V24.6117H26.8812V24.6386H26.8523V24.6655H26.8233V24.6924H26.7944V24.7193H26.7655V24.7462H26.7365V24.7731H26.7076V24.8H26.6787V24.8269H26.6497V24.8538H26.6208V24.8807H26.5918V24.9076H26.5629V24.9345H26.534V24.9614H26.505V24.9883H26.4761V25.0152H26.4472V25.0421H26.4182V25.069H26.3893V25.0959H26.3604V25.1228H26.3314V25.1496H26.3025V25.1765H26.2736V25.2034H26.2446V25.2303H26.2157V25.2572H26.1868V25.2841H26.1578V25.311H26.1289V25.3379H26.0999V25.3648H26.071V25.3917H26.0421V25.4186H26.0131V25.4455H25.9842V25.4724H25.9553V25.4993H25.9263V25.5262H25.8974V25.5531H25.8685V25.58H25.8395V25.6069H25.7817V25.6338H25.7527V25.6607H25.7238V25.6876H25.6948V25.7145H25.6659V25.7414H25.637V25.7683H25.608V25.7952H25.5791V25.822H25.5502V25.8489H25.5212V25.8758H25.4923V25.9027H25.4634V25.9296H25.4344V25.9565H25.4055V25.9834H25.3766V26.0103H25.3476V26.0372H25.3187V26.0641H25.2897V26.091H25.2608V26.1179H25.2319V26.1448H25.2029V26.1717H25.174V26.1986H25.1451V26.2255H25.1161V26.2524H25.0872V26.2793H25.0583V26.3062H25.0293V26.3331H25.0004V26.36H24.9715V26.3869H24.9425V26.4138H24.9136V26.4407H24.8846V26.4676H24.8557V26.4945H24.8268V26.5213H24.7978V26.5482H24.7689V26.5751H24.74V26.602H24.711V26.6289H24.6821V26.6558H24.6532V26.6827H24.6242V26.7096H24.5953V26.7365H24.5664V26.7634H24.5374V26.7903H24.5085V26.8172H24.4795V26.8441H24.4506V26.871H24.4217V26.8979H24.3927V26.9248H24.3638V26.9517H24.3349V26.9786H24.3059V27.0055H24.277V27.0324H24.2481V27.0593H24.2191V27.0862H24.1902V27.1131H24.1613V27.14H24.1323V27.1669H24.1034V27.1937H24.0744V27.2206H24.0455V27.2475H24.0166V27.2744H23.9876V27.3013H23.9587V27.3282H23.9298V27.3551H23.9008V27.382H23.8719V27.4089H23.843V27.4358H23.814V27.4627H23.7851V27.4896H23.7562V27.5165H23.7272V27.5434H23.6983V27.5703H23.6694V27.5972H23.6404V27.6241H23.6115V27.651H23.5825V27.6779H23.5536V27.7048H23.5247V27.7317H23.4957V27.7586H23.4668V27.7855H23.4379V27.8124H23.4089V27.8392H23.38V27.8661H23.3511V27.893H23.3221V27.9199H23.2932V27.9468H23.2643V27.9737H23.2353V28.0006H23.2064V28.0275H23.1774V28.0544H23.1485V28.0813H23.1196V28.1082H23.0906V28.1351H23.0617V28.162H23.0328V28.1889H23.0038V28.2158H22.9749V28.2427H22.946V28.2696H22.917V28.2965H22.8881V28.3234H22.8592V28.3503H22.8302V28.3772H22.8013V28.4041H22.7723V28.431H22.7434V28.4579H22.7145V28.4848H22.6855V28.5117H22.6566V28.5385H22.6277V28.5654H22.5987V28.5923H22.5698V28.6192H22.5409V28.6461H22.5119V28.673H22.483V28.6999H22.4541V28.7268H22.4251V28.7537H22.3672V28.7806H22.3383V28.8075H22.3094V28.8344H22.2804V28.8613H22.2515V28.8882H22.2226V28.9151H22.1936V28.942H22.1647V28.9689H22.1358V28.9958H22.1068V29.0227H22.0779V29.0496H22.049V29.0765H22.02V29.1034H21.9911V29.1303H21.9621V29.1572H21.9332V29.1841H21.9043V29.2109H21.8753V29.2378H21.8464V29.2647H21.8175V29.2916H21.7885V29.3185H21.7596V29.3454H21.7307V29.3723H21.7017V29.3992H21.6728V29.4261H21.6439V29.453H21.6149V29.4799H21.586V29.5068H21.557V29.5337H21.5281V29.5606H21.4992V29.5875H21.4702V29.6144H21.4413V29.6413H21.4124V29.6682H21.3834V29.6951H21.3545V29.722H21.3256V29.7489H21.2966V29.7758H21.2677V29.8027H21.2388V29.8296H21.2098V29.8565H21.1809V29.8833H21.1519V29.9102H21.123V29.9371H21.0941V29.964H21.0651V29.9909H21.0362V30.0178H21.0073V30.0447H20.9783V30.0716H20.9494V30.0985H20.9205V30.1254H20.8915V30.1523H20.8626V30.1792H20.8337V30.2061H20.8047V30.233H20.7758V30.2599H20.7469V30.2868H20.7179V30.3137H20.689V30.3406H20.66V30.3675H20.6311V30.3944H20.6022V30.4213H20.5732V30.4482H20.5443V30.4751H20.5154V30.502H20.4864V30.5289H20.4575V30.5557H20.4286V30.5826H20.3996V30.6095H20.3707V30.6364H20.3418V30.6633H20.3128V30.6902H20.2839V30.7171H20.2549V30.744H20.226V30.7709H20.1971V30.7978H20.1681V30.8247H20.1392V30.8516H20.1103V30.8785H20.0813V30.9054H20.0524V30.9323H20.0235V30.9592H19.9945V30.9861H19.9656V31.013H19.9367V31.0399H19.9077V31.0668H19.8788V31.0937H19.8498V31.1206H19.8209V31.1475H19.792V31.1744H19.763V31.2013H19.7341V31.2281H19.7052V31.255H19.6762V31.2819H19.6473V31.3088H19.6184V31.3357H19.5894V31.3626H19.5605V31.3895H19.5316V31.4164H19.5026V31.4433H19.4737V31.4702H19.4447V31.4971H19.4158V31.524H19.3869V31.5509H19.3579V31.5778H19.329V31.6047H19.3001V31.6316H19.2711V31.6585H19.2422V31.6854H19.2133V31.7123H19.1843V31.7392H19.1554V31.7661H19.1265V31.793H19.0975V31.8199H19.0686V31.8468H19.0396V31.8737H19.0107V31.9005H18.9818V31.9274H18.9239V31.9543H18.895V31.9812H18.866V32.0081H18.8371V32.035H18.8082V32.0619H18.7792V32.0888H18.7503V32.1157H18.7214V32.1426H18.6924V32.1695H18.6635V32.1964H18.6345V32.2233H18.6056V32.2502H18.5767V32.2771H18.5477V32.304H18.5188V32.3309H18.4899V32.3578H18.4609V32.3847H18.432V32.4116H18.4031V32.4385H18.3741V32.4654H18.3452V32.4923H18.3163V32.5192H18.2873V32.5461H18.2584V32.573H18.2295V32.5998H18.2005V32.6267H18.1716V32.6536H18.1426V32.6805H18.1137V32.7074H18.0848V32.7343H18.0558V32.7612H18.0269V32.7881H17.998V32.815H17.969V32.8419H17.9401V32.8688H17.9112V32.8957H17.8822V32.9226H17.8533V32.9495H17.8244V32.9764H17.7954V33.0033H17.7665V33.0302H17.7375V33.0571H17.7086V33.084H17.6797V33.1109H17.6507V33.1378H17.6218V33.1647H17.5929V33.1916H17.5639V33.2185H17.535V33.2454H17.5061V33.2722H17.4771V33.2991H17.4482V33.326H17.4193V33.3529H17.3903V33.3798H17.3614V33.4067H17.3324V33.4336H17.3035V33.4605H17.2746V33.4874H17.2456V33.5143H17.2167V33.5412H17.1878V33.5681H17.1588V33.595H17.1299V33.6219H17.101V33.6488H17.072V33.6757H17.0431V33.7026H17.0142V33.7295H16.9852V33.7564H16.9563V33.7833H16.9273V33.8102H16.8984V33.8371H16.8695V33.864H16.8405V33.8909H16.8116V33.9178H16.7827V33.9446H16.7537V33.9715H16.7248V33.9984H16.6959V34.0253H16.6669V34.0522H16.638V34.0791H16.6091V34.106H16.5801V34.1329H16.5512V34.1598H16.5222V34.1867H16.4933V34.2136H16.4644V34.2405H16.4354V34.2674H16.4065V34.2943H16.3776V34.3212H16.3486V34.3481H16.3197V34.375H16.2908V34.4019H16.2618V34.4288H16.2329V34.4557H16.204V34.4826H16.175V34.5095H16.1461V34.5364H16.1171V34.5633H16.0882V34.5902H16.0593V34.617H16.0303V34.6439H16.0014V34.6708H15.9725V34.6977H15.9435V34.7246H15.9146V34.7515H15.8857V34.7784H15.8567V34.8053H15.8278V34.8322H15.7989V34.8591H15.7699V34.886H15.741V34.9129H15.712V34.9398H15.6831V34.9667H15.6542V34.9936H15.6252V35.0205H15.5963V35.0474H15.5674V35.0743H15.5095V35.1012H15.4806V35.1281H15.4516V35.155H15.4227V35.1819H15.3938V35.2088H15.3648V35.2357H15.3359V35.2626H15.307V35.2894H15.278V35.3163H15.2491V35.3432H15.2201V35.3701H15.1912V35.397H15.1623V35.4239H15.1333V35.4508H15.1044V35.4777H15.0755V35.5046H15.0465V35.5315H15.0176V35.5584H14.9887V35.5853H14.9597V35.6122H14.9308V35.6391H14.9019V35.666H14.8729V35.6929H14.844V35.7198H14.815V35.7467H14.7861V35.7736H14.7572V35.8005H14.7282V35.8274H14.6993V35.8543H14.6704V35.8812H14.6414V35.9081H14.6125V35.935H14.5836V35.9618H14.5546V35.9887H14.5257V36.0156H14.4968V36.0425H14.4678V36.0694H14.4389V36.0963H14.4099V36.1232H14.381V36.1501H14.3521V36.177H14.3231V36.2039H14.2942V36.2308H14.2653V36.2577H14.2363V36.2846H14.2074V36.3115H14.1785V36.3384H14.1495V36.3653H14.1206V36.3922H14.0917V36.4191H14.0627V36.446H14.0338V36.4729H14.0048V36.4998H13.9759V36.5267H13.947V36.5536H13.918V36.5805H13.8891V36.6074H13.8602V36.6343H13.8312V36.6611H13.8023V36.688H13.7734V36.7149H13.7444V36.7418H13.7155V36.7687H13.6866V36.7956H13.6576V36.8225H13.6287V36.8494H13.5997V36.8763H13.5708V36.9032H13.5419V36.9301H13.5129V36.957H13.484V36.9839H13.4551V37.0108H13.4261V37.0377H13.3972V37.0646H13.3683V37.0915H13.3393V37.1184H13.3104V37.1453H13.2815V37.1722H13.2525V37.1991H13.2236V37.226H13.1946V37.2529H13.1657V37.2798H13.1368V37.3067H13.1078V37.3335H13.0789V37.3604H13.05V37.3873H13.021V37.4142H12.9921V37.4411H12.9632V37.468H12.9342V37.4949H12.9053V37.5218H12.8764V37.5487H12.8474V37.5756H12.8185V37.6025H12.7895V37.6294H12.7606V37.6563H12.7317V37.6832H12.7027V37.7101H12.6738V37.737H12.6449V37.7639H12.6159V37.7908H12.587V37.8177H12.5581V37.8446H12.5291V37.8715H12.5002V37.8984H12.4713V37.9253H12.4423V37.9522H12.4134V37.979H12.3845V38.0059H12.3555V38.0328H12.3266V38.0597H12.2976V38.0866H12.2687V38.1135H12.2398V38.1404H12.2108V38.1673H12.1819V38.1942H12.153V38.2211H12.0951V38.248H12.0662V38.2749H12.0372V38.3018H12.0083V38.3287H11.9794V38.3556H11.9504V38.3825H11.9215V38.4094H11.8925V38.4363H11.8636V38.4632H11.8347V38.4901H11.8057V38.517H11.7768V38.5439H11.7479V38.5708H11.7189V38.5977H11.69V38.6246H11.6611V38.6515H11.6321V38.6783H11.6032V38.7052H11.5743V38.7321H11.5453V38.759" fill="url(#paint0_linear_7_239)"/>
<path d="M27.6046 23.9125V23.8856H27.5757V23.8587H27.5467V23.8318H27.5178V23.8049H27.4889V23.778H27.4599V23.7511H27.431V23.7242H27.402V23.6973H27.3731V23.6704H27.3442V23.6435H27.3152V23.6166H27.2863V23.5897H27.2574V23.5628H27.2284V23.5359H27.1995V23.509H27.1706V23.4821H27.1416V23.4552H27.1127V23.4283H27.0838V23.4014H27.0548V23.3745H27.0259V23.3476H26.9969V23.3207H26.968V23.2939H26.9391V23.267H26.9101V23.2401H26.8812V23.2132H26.8523V23.1863H26.8233V23.1594H26.7944V23.1325H26.7655V23.1056H26.7365V23.0787H26.7076V23.0518H26.6787V23.0249H26.6497V22.998H26.6208V22.9711H26.5918V22.9442H26.5629V22.9173H26.534V22.8904H26.505V22.8635H26.4761V22.8366H26.4472V22.8097H26.4182V22.7828H26.3893V22.7559H26.3604V22.729H26.3314V22.7021H26.3025V22.6752H26.2736V22.6483H26.2446V22.6215H26.2157V22.5946H26.1867V22.5677H26.1578L26.1578 22.5407L26.0999 22.5408V22.5139H26.071V22.487H26.0421V22.4601H26.0131V22.4332H25.9842V22.4063H25.9553V22.3794H25.9263V22.3525H25.8974V22.3256H25.8685V22.2987H25.8395V22.2718H25.8106V22.2449H25.7817V22.218H25.7527V22.1911H25.7238V22.1642H25.6948V22.1373H25.6659V22.1104H25.637V22.0835H25.608V22.0566H25.5791V22.0297H25.5502V22.0028H25.5212V21.9759H25.4923V21.9491H25.4634V21.9222H25.4344V21.8953H25.4055V21.8684H25.3766V21.8415H25.3476V21.8146H25.3187V21.7877H25.2897V21.7608H25.2608V21.7339H25.2319V21.707H25.2029V21.6801H25.174V21.6532H25.1451V21.6263H25.1161V21.5994H25.0872V21.5725H25.0583V21.5456H25.0293V21.5187H25.0004V21.4918H24.9715V21.4649H24.9425V21.438H24.9136V21.4111H24.8846V21.3842H24.8557V21.3573H24.8268V21.3304H24.7978V21.3035H24.7689V21.2766H24.74V21.2498H24.711V21.2229H24.6821V21.196H24.6532V21.1691H24.6242V21.1422H24.5953V21.1153H24.5664V21.0884H24.5374V21.0615H24.5085V21.0346H24.4795V21.0077H24.4506V20.9808H24.4217V20.9539H24.3927V20.927H24.3638V20.9001H24.3349V20.8732H24.3059V20.8463H24.277V20.8194H24.2481V20.7925H24.2191V20.7656H24.1902V20.7387H24.1613V20.7118H24.1323V20.6849H24.1034V20.658H24.0744V20.6311H24.0455V20.6042H24.0166V20.5774H23.9876V20.5505H23.9587V20.5236H23.9298V20.4967H23.9008V20.4698H23.8719V20.4429H23.843V20.416H23.814V20.3891H23.7851V20.3622H23.7562V20.3353H23.7272V20.3084H23.6983V20.2815H23.6693V20.2546H23.6404V20.2277H23.6115V20.2008H23.5825V20.1739H23.5536V20.147H23.5247V20.1201H23.4957V20.0932H23.4668V20.0663H23.4379V20.0394H23.4089V20.0125H23.38V19.9856H23.3511V19.9587H23.3221V19.9318H23.2932V19.905H23.2642V19.8781H23.2353V19.8512H23.2064V19.8243H23.1774V19.7974H23.1485V19.7705H23.1196V19.7436H23.0906V19.7167H23.0617V19.6898H23.0328V19.6629H23.0038V19.636H22.9749V19.6091H22.946V19.5822H22.917V19.5553H22.8881V19.5284H22.8592V19.5015H22.8302V19.4746H22.8013V19.4477H22.7723V19.4208H22.7434V19.3939H22.7145L22.7145 19.367L22.6566 19.367V19.3401H22.6277V19.3132H22.5987V19.2863H22.5698V19.2594H22.5409V19.2326H22.5119V19.2057H22.483V19.1788H22.4541V19.1519H22.4251V19.125H22.3962V19.0981H22.3672V19.0712H22.3383V19.0443H22.3094V19.0174H22.2804V18.9905H22.2515V18.9636H22.2226V18.9367H22.1936V18.9098H22.1647V18.8829H22.1358V18.856H22.1068V18.8291H22.0779V18.8022H22.049V18.7753H22.02V18.7484H21.9911V18.7215H21.9621V18.6946H21.9332V18.6677H21.9043V18.6408H21.8753V18.6139H21.8464V18.587H21.8175V18.5602H21.7885V18.5333H21.7596V18.5064H21.7307V18.4795H21.7017V18.4526H21.6728V18.4257H21.6439V18.3988H21.6149V18.3719H21.586V18.345H21.557V18.3181H21.5281V18.2912H21.4992V18.2643H21.4702V18.2374H21.4413V18.2105H21.4124V18.1836H21.3834V18.1567H21.3545V18.1298H21.3256V18.1029H21.2966V18.076H21.2677V18.0491H21.2388V18.0222H21.2098V17.9953H21.1809V17.9684H21.1519V17.9415H21.123V17.9146H21.0941V17.8878H21.0651V17.8609H21.0362V17.834H21.0073V17.8071H20.9783V17.7802H20.9494V17.7533H20.9205V17.7264H20.8915V17.6995H20.8626V17.6726H20.8337V17.6457H20.8047V17.6188H20.7758V17.5919H20.7468V17.565H20.7179V17.5381H20.689V17.5112H20.66V17.4843H20.6311V17.4574H20.6022V17.4305H20.5732V17.4036H20.5443V17.3767H20.5154V17.3498H20.4864V17.3229H20.4575V17.296H20.4286V17.2691H20.3996V17.2422H20.3707V17.2154H20.3417V17.1885H20.3128V17.1616H20.2839V17.1347H20.2549V17.1078H20.226V17.0809H20.1971V17.054H20.1681V17.0271H20.1392V17.0002H20.1103V16.9733H20.0813V16.9464H20.0524V16.9195H20.0235V16.8926H19.9945V16.8657H19.9656V16.8388H19.9367V16.8119H19.9077V16.785H19.8788V16.7581H19.8498V16.7312H19.8209V16.7043H19.792V16.6774H19.763V16.6505H19.7341V16.6236H19.7052V16.5967H19.6762V16.5698H19.6473V16.543H19.6184V16.5161H19.5894V16.4892H19.5605V16.4623H19.5316V16.4354H19.5026V16.4085H19.4737V16.3816H19.4447V16.3547H19.4158V16.3278H19.3869V16.3009H19.3579V16.274H19.329V16.2471H19.3001L19.3001 16.2202L19.2422 16.2202V16.1933H19.2133V16.1664H19.1843V16.1395H19.1554V16.1126H19.1265V16.0857H19.0975V16.0588H19.0686V16.0319H19.0396V16.005H19.0107V15.9781H18.9818V15.9512H18.9528V15.9243H18.9239V15.8974H18.895V15.8705H18.866V15.8437H18.8371V15.8168H18.8082V15.7899H18.7792V15.763H18.7503V15.7361H18.7214V15.7092H18.6924V15.6823H18.6635V15.6554H18.6345V15.6285H18.6056V15.6016H18.5767V15.5747H18.5477V15.5478H18.5188V15.5209H18.4899V15.494H18.4609V15.4671H18.432V15.4402H18.4031V15.4133H18.3741V15.3864H18.3452V15.3595H18.3163V15.3326H18.2873V15.3057H18.2584V15.2788H18.2294V15.2519H18.2005V15.225H18.1716V15.1981H18.1426V15.1713H18.1137V15.1444H18.0848V15.1175H18.0558V15.0906H18.0269V15.0637H17.998V15.0368H17.969V15.0099H17.9401V14.983H17.9112V14.9561H17.8822V14.9292H17.8533V14.9023H17.8243V14.8754H17.7954V14.8485H17.7665V14.8216H17.7375V14.7947H17.7086V14.7678H17.6797V14.7409H17.6507V14.714H17.6218V14.6871H17.5929V14.6602H17.5639V14.6333H17.535V14.6064H17.5061V14.5795H17.4771V14.5526H17.4482V14.5257H17.4193V14.4989H17.3903V14.472H17.3614V14.4451H17.3324V14.4182H17.3035V14.3913H17.2746V14.3644H17.2456V14.3375H17.2167V14.3106H17.1878V14.2837H17.1588V14.2568H17.1299V14.2299H17.101V14.203H17.072V14.1761H17.0431V14.1492H17.0142V14.1223H16.9852V14.0954H16.9563V14.0685H16.9273V14.0416H16.8984V14.0147H16.8695V13.9878H16.8405V13.9609H16.8116V13.934H16.7827V13.9071H16.7537V13.8802H16.7248V13.8533H16.6959V13.8265H16.6669V13.7996H16.638V13.7727H16.6091V13.7458H16.5801V13.7189H16.5512V13.692H16.5222V13.6651H16.4933V13.6382H16.4644V13.6113H16.4354V13.5844H16.4065V13.5575H16.3776V13.5306H16.3486V13.5037H16.3197V13.4768H16.2908V13.4499H16.2618V13.423H16.2329V13.3961H16.204V13.3692H16.175V13.3423H16.1461V13.3154H16.1171V13.2885H16.0882V13.2616H16.0593V13.2347H16.0303V13.2078H16.0014V13.1809H15.9725V13.1541H15.9435V13.1272H15.9146V13.1003H15.8857V13.0734H15.8567L15.8567 13.0464L15.7989 13.0465V13.0196H15.7699V12.9927H15.741V12.9658H15.712V12.9389H15.6831V12.912H15.6542V12.8851H15.6252V12.8582H15.5963V12.8313H15.5674V12.8044H15.5384V12.7775H15.5095V12.7506H15.4806V12.7237H15.4516V12.6968H15.4227V12.6699H15.3938V12.643H15.3648V12.6161H15.3359V12.5892H15.3069V12.5623H15.278V12.5354H15.2491V12.5085H15.2201V12.4817H15.1912V12.4548H15.1623V12.4279H15.1333V12.401H15.1044V12.3741H15.0755V12.3472H15.0465V12.3203H15.0176V12.2934H14.9887V12.2665H14.9597V12.2396H14.9308V12.2127H14.9018V12.1858H14.8729V12.1589H14.844V12.132H14.815V12.1051H14.7861V12.0782H14.7572V12.0513H14.7282V12.0244H14.6993V11.9975H14.6704V11.9706H14.6414V11.9437H14.6125V11.9168H14.5836V11.8899H14.5546V11.863H14.5257V11.8361H14.4968V11.8093H14.4678V11.7824H14.4389V11.7555H14.4099V11.7286H14.381V11.7017H14.3521V11.6748H14.3231V11.6479H14.2942V11.621H14.2653V11.5941H14.2363V11.5672H14.2074V11.5403H14.1785V11.5134H14.1495V11.4865H14.1206V11.4596H14.0917V11.4327H14.0627V11.4058H14.0338V11.3789H14.0048V11.352H13.9759V11.3251H13.947V11.2982H13.918V11.2713H13.8891V11.2444H13.8602V11.2175H13.8312V11.1906H13.8023V11.1637H13.7734V11.1368H13.7444V11.11H13.7155V11.0831H13.6866V11.0562H13.6576V11.0293H13.6287V11.0024H13.5997V10.9755H13.5708V10.9486H13.5419V10.9217H13.5129V10.8948H13.484V10.8679H13.4551V10.841H13.4261V10.8141H13.3972V10.7872H13.3683V10.7603H13.3393V10.7334H13.3104V10.7065H13.2815V10.6796H13.2525V10.6527H13.2236V10.6258H13.1946V10.5989H13.1657V10.572H13.1368V10.5451H13.1078V10.5182H13.0789V10.4913H13.05V10.4644H13.021V10.4376H12.9921V10.4107H12.9632V10.3838H12.9342V10.3569H12.9053V10.33H12.8764V10.3031H12.8474V10.2762H12.8185V10.2493H12.7895V10.2224H12.7606V10.1955H12.7317V10.1686H12.7027V10.1417H12.6738V10.1148H12.6449V10.0879H12.6159V10.061H12.587V10.0341H12.5581V10.0072H12.5291V9.98032H12.5002V9.95342H12.4713V9.92653H12.4423L12.4423 9.8996L12.4134 9.89963L12.4134 9.87271L12.3555 9.87274V9.84584H12.3266V9.81894H12.2976V9.79205H12.2687V9.76515H12.2398V9.73826H12.2108V9.71136H12.1819V9.68446H12.153V9.65757H12.124V9.63067H12.0951V9.60378H12.0662V9.57688H12.0372V9.54998H12.0083V9.52309H11.9793V9.49619H11.9504V9.4693H11.9215V9.4424H11.8925V9.4155H11.8636V9.38861H11.8347V9.36171H11.8057V9.33482H11.7768V9.30792H11.7479V9.28102H11.7189V9.25413H11.69V9.22723H11.6611V9.20034H11.6321L11.6321 9.14652L11.7479 9.14654V9.11965H12.0372V9.14654H12.153V9.17344H12.2687V9.20034H12.3266V9.22723H12.4134V9.25413H12.4713V9.28102H12.5291V9.30792H12.587V9.33482H12.6159V9.36171H12.6738V9.38861H12.7317V9.4155H12.7606V9.4424H12.8185V9.4693H12.8764V9.49619H12.9342V9.52309H12.9632V9.54998H13.021V9.57688H13.0789V9.60378H13.1368V9.63067H13.1657V9.65757H13.2236V9.68446H13.2815V9.71136H13.3104V9.73826H13.3683V9.76515H13.4261V9.79205H13.484V9.81894H13.5129V9.84584H13.5708V9.87274H13.6287V9.89963H13.6866V9.92653H13.7155V9.95342H13.7734V9.98032H13.8312V10.0072H13.8891V10.0341H13.918V10.061H13.9759V10.0879H14.0338V10.1148H14.0627V10.1417H14.1206V10.1686H14.1785V10.1955H14.2363V10.2224H14.2653V10.2493H14.3231V10.2762H14.381V10.3031H14.4389V10.33H14.4678V10.3569H14.5257V10.3838H14.5836V10.4107H14.6414V10.4376H14.6704V10.4644H14.7282V10.4913H14.7861V10.5182H14.815V10.5451H14.8729V10.572H14.9308V10.5989H14.9887V10.6258H15.0176V10.6527H15.0755V10.6796H15.1333V10.7065H15.1912V10.7334H15.2201V10.7603H15.278V10.7872H15.3359V10.8141H15.3938V10.841H15.4227V10.8679H15.4806V10.8948H15.5384V10.9217H15.5674V10.9486H15.6252V10.9755H15.6831V11.0024H15.741V11.0293H15.7699V11.0562H15.8278V11.0831H15.8857V11.11H15.9435V11.1368H15.9725V11.1637H16.0303V11.1906H16.0882V11.2175H16.1171V11.2444H16.175V11.2713H16.2329V11.2982H16.2908V11.3251H16.3197V11.352H16.3776V11.3789H16.4354V11.4058H16.4933V11.4327H16.5222V11.4596H16.5801V11.4865H16.638V11.5134H16.6959V11.5403H16.7248V11.5672H16.7827V11.5941H16.8405V11.621H16.8695V11.6479H16.9273V11.6748H16.9852V11.7017H17.0431V11.7286H17.072V11.7555H17.1299V11.7824H17.1878V11.8093H17.2456V11.8361H17.2746V11.863H17.3324V11.8899H17.3903V11.9168H17.4482V11.9437H17.4771V11.9706H17.535V11.9975H17.5929V12.0244H17.6218V12.0513H17.6797V12.0782H17.7375V12.1051H17.7954V12.132H17.8243V12.1589H17.8822V12.1858H17.9401V12.2127H17.998V12.2396H18.0269V12.2665H18.0848V12.2934H18.1426V12.3203H18.1716V12.3472H18.2294V12.3741H18.2873V12.401H18.3452V12.4279H18.3741V12.4548H18.432V12.4817H18.4899V12.5085H18.5477V12.5354H18.5767V12.5623H18.6345V12.5892H18.6924V12.6161H18.7503V12.643H18.7792V12.6699H18.8371V12.6968H18.895V12.7237H18.9239V12.7506H18.9818V12.7775H19.0396V12.8044H19.0975V12.8313H19.1265V12.8582H19.1843V12.8851H19.2422V12.912H19.3001V12.9389H19.329V12.9658H19.3869V12.9927H19.4447V13.0196H19.5026V13.0465H19.5316V13.0734H19.5894V13.1003H19.6473V13.1272H19.6762V13.1541H19.7341V13.1809H19.792V13.2078H19.8498V13.2347H19.8788V13.2616H19.9367V13.2885H19.9945V13.3154H20.0524V13.3423H20.0813V13.3692H20.1392V13.3961H20.1971V13.423H20.2549V13.4499H20.2839V13.4768H20.3417V13.5037H20.3996V13.5306H20.4286V13.5575H20.4864V13.5844H20.5443V13.6113H20.6022V13.6382H20.6311V13.6651H20.689V13.692H20.7468V13.7189H20.8047V13.7458H20.8337V13.7727H20.8915V13.7996H20.9494V13.8265H20.9783V13.8533H21.0362V13.8802H21.0941V13.9071H21.1519V13.934H21.1809V13.9609H21.2388V13.9878H21.2966V14.0147H21.3545V14.0416H21.3834V14.0685H21.4413V14.0954H21.4992V14.1223H21.557V14.1492H21.586V14.1761H21.6439V14.203H21.7017V14.2299H21.7307V14.2568H21.7885V14.2837H21.8464V14.3106H21.9043V14.3375H21.9332V14.3644H21.9911V14.3913H22.049V14.4182H22.1068V14.4451H22.1358V14.472H22.1936V14.4989H22.2515V14.5257H22.3094V14.5526H22.3383V14.5795H22.3962V14.6064H22.4541V14.6333H22.483V14.6602H22.5409V14.6871H22.5987V14.714H22.6566V14.7409H22.6855V14.7678H22.7434V14.7947H22.8013V14.8216H22.8592V14.8485H22.8881V14.8754H22.946V14.9023H23.0038V14.9292H23.0328V14.9561H23.0906V14.983H23.1485V15.0099H23.2064V15.0368H23.2353V15.0637H23.2932V15.0906H23.3511V15.1175H23.4089V15.1444H23.4379V15.1713H23.4957V15.1981H23.5536V15.225H23.6115V15.2519H23.6404V15.2788H23.6983V15.3057H23.7562V15.3326H23.7851V15.3595H23.843V15.3864H23.9008V15.4133H23.9587V15.4402H23.9876V15.4671H24.0455V15.494H24.1034V15.5209H24.1613V15.5478H24.1902V15.5747H24.2481V15.6016H24.3059V15.6285H24.3638V15.6554H24.3927V15.6823H24.4506V15.7092H24.5085V15.7361H24.5374V15.763H24.5953V15.7899H24.6532V15.8168H24.711V15.8437H24.74V15.8705H24.7978V15.8974H24.8557V15.9243H24.9136V15.9512H24.9425V15.9781H25.0004V16.005H25.0583V16.0319H25.1161V16.0588H25.1451V16.0857H25.2029V16.1126H25.2608V16.1395H25.2897V16.1664H25.3476V16.1933H25.4055V16.2202H25.4634V16.2471H25.4923V16.274H25.5502V16.3009H25.608V16.3278H25.6659V16.3547H25.6948V16.3816H25.7527V16.4085H25.8106V16.4354H25.8395V16.4623H25.8974V16.4892H25.9553V16.5161H26.0131V16.543H26.0421V16.5698H26.0999V16.5967H26.1578V16.6236H26.2157V16.6505H26.2446V16.6774H26.3025V16.7043H26.3604V16.7312H26.4182V16.7581H26.4472V16.785H26.505V16.8119H26.5629V16.8388H26.5918V16.8657H26.6497V16.8926H26.7076V16.9195H26.7655V16.9464H26.7944V16.9733H26.8523V17.0002H26.9101V17.0271H26.968V17.054H26.9969V17.0809H27.0548V17.1078H27.1127V17.1347H27.1706V17.1616H27.1995V17.1885H27.2574V17.2154H27.3152V17.2422H27.3442V17.2691H27.402V17.296H27.4599V17.3229H27.5178V17.3498H27.5467V17.3767H27.6046V17.4036H27.6625V17.4305H27.7203V17.4574H27.7493V17.4843H27.8071V17.5112H27.865V17.5381H27.9229V17.565H27.9518V17.5919H28.0097V17.6188H28.0676V17.6457H28.0965V17.6726H28.1544V17.6995H28.2122V17.7264H28.2701V17.7533H28.299V17.7802H28.3569V17.8071H28.4148V17.834H28.4727V17.8609H28.5016V17.8878H28.5595V17.9146H28.6173V17.9415H28.6463V17.9684H28.7041V17.9953H28.762V18.0222H28.8199V18.0491H28.8488V18.076H28.9067V18.1029H28.9646V18.1298H29.0224V18.1567H29.0514V18.1836H29.1092V18.2105H29.1671V18.2374H29.225V18.2643H29.2539V18.2912H29.3118V18.3181H29.3697V18.345H29.3986V18.3719H29.4565V18.3988H29.5143V18.4257H29.5722V18.4526H29.6012V18.4795H29.659V18.5064H29.7169V18.5333H29.7748V18.5602H29.8037V18.587H29.8616V18.6139H29.9194V18.6408H29.9773V18.6677H30.0063V18.6946H30.0641V18.7215H30.122V18.7484H30.1509V18.7753H30.2088V18.8022H30.2667V18.8291H30.3245V18.856H30.3535V18.8829H30.4114V18.9098H30.4692V18.9367H30.5271V18.9636H30.556V18.9905H30.6139V19.0174H30.6718V19.0443H30.7007V19.0712H30.7586V19.0981H30.8165V19.125H30.8743V19.1519H30.9033V19.1788H30.9611V19.2057H31.019V19.2326H31.0769V19.2594H31.1058V19.2863H31.1637V19.3132H31.2216V19.3401H31.2794V19.367H31.3084V19.3939H31.3662V19.4208H31.4241V19.4477H31.453V19.4746H31.5109V19.5015H31.5688V19.5284H31.6266V19.5553H31.6556V19.5822H31.7135V19.6091H31.7713V19.636H31.8292V19.6629H31.8581V19.6898H31.916V19.7167H31.9739V19.7436H32.0317V19.7705H32.0607V19.7974H32.0896V19.8243H32.0607V19.8512H32.0317V19.8781H32.0028V19.905H31.9739V19.9318H31.9449V19.9587H31.916V19.9856H31.8871V20.0125H31.8581V20.0394H31.8292V20.0663H31.8003V20.0932H31.7713V20.1201H31.7424V20.147H31.7135V20.1739H31.6845V20.2008H31.6556V20.2277H31.6266V20.2546H31.5977V20.2815H31.5688V20.3084H31.5398V20.3353H31.5109V20.3622H31.482V20.3891H31.453V20.416H31.4241V20.4429H31.3952V20.4698H31.3662V20.4967H31.3373V20.5236H31.3084V20.5505H31.2794V20.5774H31.2505V20.6042H31.2216V20.6311H31.1926V20.658H31.1637V20.6849H31.1347V20.7118H31.1058V20.7387H31.0769V20.7656H31.0479V20.7925H31.019V20.8194H30.9901V20.8463H30.9611V20.8732H30.9322V20.9001H30.9033V20.927H30.8743V20.9539H30.8454V20.9808H30.8165V21.0077H30.7875V21.0346H30.7586V21.0615H30.7296V21.0884H30.7007V21.1153H30.6718V21.1422H30.6428V21.1691H30.6139V21.196H30.585V21.2229H30.556V21.2498H30.5271V21.2766H30.4982V21.3035H30.4692V21.3304H30.4403V21.3573H30.4114V21.3842H30.3824V21.4111H30.3535V21.438H30.3245V21.4649H30.2956V21.4918H30.2667V21.5187H30.2377V21.5456H30.2088V21.5725H30.1799V21.5994H30.1509V21.6263H30.122V21.6532H30.0931V21.6801H30.0641V21.707H30.0352V21.7339H30.0063V21.7608H29.9773V21.7877H29.9484V21.8146H29.9194V21.8415H29.8905V21.8684H29.8616V21.8953H29.8326V21.9222H29.8037V21.9491H29.7748V21.9759H29.7458V22.0028H29.7169V22.0297H29.688V22.0566H29.659V22.0835H29.6301V22.1104H29.6012V22.1373H29.5722V22.1642H29.5433V22.1911H29.5143V22.218H29.4854V22.2449H29.4565V22.2718H29.4275V22.2987H29.3986V22.3256H29.3697V22.3525H29.3407V22.3794H29.3118V22.4063H29.2829V22.4332H29.2539V22.4601H29.1961V22.487H29.1671V22.5139H29.1382V22.5408H29.1092V22.5677H29.0803V22.5946H29.0514V22.6215H29.0224V22.6483H28.9935V22.6752H28.9646V22.7021H28.9356V22.729H28.9067V22.7559H28.8778V22.7828H28.8488V22.8097H28.8199V22.8366H28.791V22.8635H28.762V22.8904H28.7331V22.9173H28.7041V22.9442H28.6752V22.9711H28.6463V22.998H28.6173V23.0249H28.5884V23.0518H28.5595V23.0787H28.5305V23.1056H28.5016V23.1325H28.4727V23.1594H28.4437V23.1863H28.4148V23.2132H28.3859V23.2401H28.3569V23.267H28.328V23.2939H28.299V23.3207H28.2701V23.3476H28.2412V23.3745H28.2122V23.4014H28.1833V23.4283H28.1544V23.4552H28.1254V23.4821H28.0965V23.509H28.0676V23.5359H28.0386V23.5628H28.0097V23.5897H27.9808V23.6166H27.9518V23.6435H27.9229V23.6704H27.894V23.6973H27.865V23.7242H27.8361V23.7511H27.8071V23.778H27.7782V23.8049H27.7493V23.8318H27.7203V23.8587H27.6914V23.8856H27.6625V23.9125" fill="url(#paint1_linear_7_239)"/>
<path d="M11.5164 38.7859V38.759H11.4875V38.7321H11.5164V38.7052H11.5453V38.6783H11.5743V38.6514H11.6032V38.6245H11.6321V38.5977H11.6611V38.5708H11.69V38.5439H11.7189V38.517H11.7479V38.4901H11.7768V38.4632H11.8057V38.4363H11.8347V38.4094H11.8636V38.3825H11.8926V38.3556H11.9215V38.3287H11.9504V38.3018H11.9794V38.2749H12.0083V38.248H12.0372V38.2211H12.0662V38.1942H12.124V38.1673H12.153V38.1404H12.1819V38.1135H12.2108V38.0866H12.2398V38.0597H12.2687V38.0328H12.2977V38.0059H12.3266V37.979H12.3555V37.9521H12.3845V37.9253H12.4134V37.8984H12.4423V37.8715H12.4713V37.8446H12.5002V37.8177H12.5291V37.7908H12.5581V37.7639H12.587V37.737H12.6159V37.7101H12.6449V37.6832H12.6738V37.6563H12.7027V37.6294H12.7317V37.6025H12.7606V37.5756H12.7896V37.5487H12.8185V37.5218H12.8474V37.4949H12.8764V37.468H12.9053V37.4411H12.9342V37.4142H12.9632V37.3873H12.9921V37.3604H13.021V37.3335H13.05V37.3066H13.0789V37.2797H13.1078V37.2529H13.1368V37.226H13.1657V37.1991H13.1947V37.1722H13.2236V37.1453H13.2525V37.1184H13.2815V37.0915H13.3104V37.0646H13.3393V37.0377H13.3683V37.0108H13.3972V36.9839H13.4261V36.957H13.4551V36.9301H13.484V36.9032H13.5129V36.8763H13.5419V36.8494H13.5708V36.8225H13.5998V36.7956H13.6287V36.7687H13.6576V36.7418H13.6866V36.7149H13.7155V36.688H13.7444V36.6611H13.7734V36.6342H13.8023V36.6073H13.8312V36.5805H13.8602V36.5536H13.8891V36.5267H13.918V36.4998H13.947V36.4729H13.9759V36.446H14.0049V36.4191H14.0338V36.3922H14.0627V36.3653H14.0917V36.3384H14.1206V36.3115H14.1495V36.2846H14.1785V36.2577H14.2074V36.2308H14.2363V36.2039H14.2653V36.177H14.2942V36.1501H14.3231V36.1232H14.3521V36.0963H14.381V36.0694H14.41V36.0425H14.4389V36.0156H14.4678V35.9887H14.4968V35.9618H14.5257V35.9349H14.5546V35.9081H14.5836V35.8812H14.6125V35.8543H14.6414V35.8274H14.6704V35.8005H14.6993V35.7736H14.7282V35.7467H14.7572V35.7198H14.7861V35.6929H14.8151V35.666H14.844V35.6391H14.8729V35.6122H14.9019V35.5853H14.9308V35.5584H14.9597V35.5315H14.9887V35.5046H15.0176V35.4777H15.0465V35.4508H15.0755V35.4239H15.1044V35.397H15.1333V35.3701H15.1623V35.3432H15.1912V35.3163H15.2202V35.2894H15.2491V35.2625H15.278V35.2357H15.307V35.2088H15.3359V35.1819H15.3648V35.155H15.3938V35.1281H15.4227V35.1012H15.4516V35.0743H15.4806V35.0474H15.5384V35.0205H15.5674V34.9936H15.5963V34.9667H15.6252V34.9398H15.6542V34.9129H15.6831V34.886H15.7121V34.8591H15.741V34.8322H15.7699V34.8053H15.7989V34.7784H15.8278V34.7515H15.8567V34.7246H15.8857V34.6977H15.9146V34.6708H15.9435V34.6439H15.9725V34.617H16.0014V34.5901H16.0303V34.5632H16.0593V34.5364H16.0882V34.5095H16.1172V34.4826H16.1461V34.4557H16.175V34.4288H16.204V34.4019H16.2329V34.375H16.2618V34.3481H16.2908V34.3212H16.3197V34.2943H16.3486V34.2674H16.3776V34.2405H16.4065V34.2136H16.4354V34.1867H16.4644V34.1598H16.4933V34.1329H16.5223V34.106H16.5512V34.0791H16.5801V34.0522H16.6091V34.0253H16.638V33.9984H16.6669V33.9715H16.6959V33.9446H16.7248V33.9177H16.7537V33.8908H16.7827V33.864H16.8116V33.8371H16.8405V33.8102H16.8695V33.7833H16.8984V33.7564H16.9274V33.7295H16.9563V33.7026H16.9852V33.6757H17.0142V33.6488H17.0431V33.6219H17.072V33.595H17.101V33.5681H17.1299V33.5412H17.1588V33.5143H17.1878V33.4874H17.2167V33.4605H17.2456V33.4336H17.2746V33.4067H17.3035V33.3798H17.3325V33.3529H17.3614V33.326H17.3903V33.2991H17.4193V33.2722H17.4482V33.2453H17.4771V33.2184H17.5061V33.1916H17.535V33.1647H17.5639V33.1378H17.5929V33.1109H17.6218V33.084H17.6507V33.0571H17.6797V33.0302H17.7086V33.0033H17.7376V32.9764H17.7665V32.9495H17.7954V32.9226H17.8244V32.8957H17.8533V32.8688H17.8822V32.8419H17.9112V32.815H17.9401V32.7881H17.969V32.7612H17.998V32.7343H18.0269V32.7074H18.0558V32.6805H18.0848V32.6536H18.1137V32.6267H18.1426V32.5998H18.1716V32.5729H18.2005V32.546H18.2295V32.5192H18.2584V32.4923H18.2873V32.4654H18.3163V32.4385H18.3452V32.4116H18.3741V32.3847H18.4031V32.3578H18.432V32.3309H18.4609V32.304H18.4899V32.2771H18.5188V32.2502H18.5477V32.2233H18.5767V32.1964H18.6056V32.1695H18.6346V32.1426H18.6635V32.1157H18.6924V32.0888H18.7214V32.0619H18.7503V32.035H18.7792V32.0081H18.8082V31.9812H18.8371V31.9543H18.866V31.9274H18.895V31.9005H18.9528V31.8736H18.9818V31.8468H19.0107V31.8199H19.0397V31.793H19.0686V31.7661H19.0975V31.7392H19.1265V31.7123H19.1554V31.6854H19.1843V31.6585H19.2133V31.6316H19.2422V31.6047H19.2711V31.5778H19.3001V31.5509H19.329V31.524H19.3579V31.4971H19.3869V31.4702H19.4158V31.4433H19.4448V31.4164H19.4737V31.3895H19.5026V31.3626H19.5316V31.3357H19.5605V31.3088H19.5894V31.2819H19.6184V31.255H19.6473V31.2281H19.6762V31.2012H19.7052V31.1743H19.7341V31.1475H19.763V31.1206H19.792V31.0937H19.8209V31.0668H19.8499V31.0399H19.8788V31.013H19.9077V30.9861H19.9367V30.9592H19.9656V30.9323H19.9945V30.9054H20.0235V30.8785H20.0524V30.8516H20.0813V30.8247H20.1103V30.7978H20.1392V30.7709H20.1681V30.744H20.1971V30.7171H20.226V30.6902H20.255V30.6633H20.2839V30.6364H20.3128V30.6095H20.3418V30.5826H20.3707V30.5557H20.3996V30.5288H20.4286V30.5019H20.4575V30.4751H20.4864V30.4482H20.5154V30.4213H20.5443V30.3944H20.5732V30.3675H20.6022V30.3406H20.6311V30.3137H20.6601V30.2868H20.689V30.2599H20.7179V30.233H20.7469V30.2061H20.7758V30.1792H20.8047V30.1523H20.8337V30.1254H20.8626V30.0985H20.8915V30.0716H20.9205V30.0447H20.9494V30.0178H20.9783V29.9909H21.0073V29.964H21.0362V29.9371H21.0651V29.9102H21.0941V29.8833H21.123V29.8564H21.152V29.8295H21.1809V29.8027H21.2098V29.7758H21.2388V29.7489H21.2677V29.722H21.2966V29.6951H21.3256V29.6682H21.3545V29.6413H21.3834V29.6144H21.4124V29.5875H21.4413V29.5606H21.4702V29.5337H21.4992V29.5068H21.5281V29.4799H21.5571V29.453H21.586V29.4261H21.6149V29.3992H21.6439V29.3723H21.6728V29.3454H21.7017V29.3185H21.7307V29.2916H21.7596V29.2647H21.7885V29.2378H21.8175V29.2109H21.8464V29.184H21.8753V29.1571H21.9043V29.1303H21.9332V29.1034H21.9622V29.0765H21.9911V29.0496H22.02V29.0227H22.049V28.9958H22.0779V28.9689H22.1068V28.942H22.1358V28.9151H22.1647V28.8882H22.1936V28.8613H22.2226V28.8344H22.2515V28.8075H22.2804V28.7806H22.3094V28.7537L22.3672 28.7537L22.3673 28.7268H22.3962V28.6999H22.4251V28.673H22.4541V28.6461H22.483V28.6192H22.5119V28.5923H22.5409V28.5654H22.5698V28.5385H22.5987V28.5116H22.6277V28.4847H22.6566V28.4579H22.6855V28.431H22.7145V28.4041H22.7434V28.3772H22.7724V28.3503H22.8013V28.3234H22.8302V28.2965H22.8592V28.2696H22.8881V28.2427H22.917V28.2158H22.946V28.1889H22.9749V28.162H23.0038V28.1351H23.0328V28.1082H23.0617V28.0813H23.0906V28.0544H23.1196V28.0275H23.1485V28.0006H23.1775V27.9737H23.2064V27.9468H23.2353V27.9199H23.2643V27.893H23.2932V27.8661H23.3221V27.8392H23.3511V27.8123H23.38V27.7854H23.4089V27.7586H23.4379V27.7317H23.4668V27.7048H23.4957V27.6779H23.5247V27.651H23.5536V27.6241H23.5826V27.5972H23.6115V27.5703H23.6404V27.5434H23.6694V27.5165H23.6983V27.4896H23.7272V27.4627H23.7562V27.4358H23.7851V27.4089H23.814V27.382H23.843V27.3551H23.8719V27.3282H23.9008V27.3013H23.9298V27.2744H23.9587V27.2475H23.9876V27.2206H24.0166V27.1937H24.0455V27.1668H24.0745V27.1399H24.1034V27.113H24.1323V27.0862H24.1613V27.0593H24.1902V27.0324H24.2191V27.0055H24.2481V26.9786H24.277V26.9517H24.3059V26.9248H24.3349V26.8979H24.3638V26.871H24.3927V26.8441H24.4217V26.8172H24.4506V26.7903H24.4796V26.7634H24.5085V26.7365H24.5374V26.7096H24.5664V26.6827H24.5953V26.6558H24.6242V26.6289H24.6532V26.602H24.6821V26.5751H24.711V26.5482H24.74V26.5213H24.7689V26.4944H24.7978V26.4675H24.8268V26.4407H24.8557V26.4138H24.8847V26.3869H24.9136V26.36H24.9425V26.3331H24.9715V26.3062H25.0004V26.2793H25.0293V26.2524H25.0583V26.2255H25.0872V26.1986H25.1161V26.1717H25.1451V26.1448H25.174V26.1179H25.2029V26.091H25.2319V26.0641H25.2608V26.0372H25.2898V26.0103H25.3187V25.9834H25.3476V25.9565H25.3766V25.9296H25.4055V25.9027H25.4344V25.8758H25.4634V25.8489H25.4923V25.822H25.5212V25.7951H25.5502V25.7682H25.5791V25.7414H25.608V25.7145H25.637V25.6876H25.6659V25.6607H25.6949V25.6338H25.7238V25.6069L25.7817 25.6069L25.7817 25.58H25.8106V25.5531H25.8395V25.5262H25.8685V25.4993H25.8974V25.4724H25.9263V25.4455H25.9553V25.4186H25.9842V25.3917H26.0131V25.3648H26.0421V25.3379H26.071V25.311H26.1V25.2841H26.1289V25.2572H26.1578V25.2303H26.1868V25.2034H26.2157V25.1765H26.2446V25.1496H26.2736V25.1227H26.3025V25.0958H26.3314V25.069H26.3604V25.0421H26.3893V25.0152H26.4182V24.9883H26.4472V24.9614H26.4761V24.9345H26.5051V24.9076H26.534V24.8807H26.5629V24.8538H26.5919V24.8269H26.6208V24.8H26.6497V24.7731H26.6787V24.7462H26.7076V24.7193H26.7365V24.6924H26.7655V24.6655H26.7944V24.6386H26.8233V24.6117H26.8523V24.5848H26.8812V24.5579H26.9101V24.531H26.9391V24.5041H26.968V24.4772H26.997V24.4503H27.0259V24.4234H27.0548V24.3966H27.0838V24.3697H27.1127V24.3428H27.1416V24.3159H27.1706V24.289H27.1995V24.2621H27.2284V24.2352H27.2574V24.2083H27.2863V24.1814H27.3152V24.1545H27.3442V24.1276H27.3731V24.1007H27.4021V24.0738H27.431V24.0469H27.4599V24.02H27.4889V23.9931H27.5178V23.9662H27.5467V23.9393H27.5757V23.9124L27.6046 23.9125V23.8856H27.6625V23.9125L27.6914 23.9124V23.9393H27.7203V23.9662H27.7493V23.9931H27.7782V24.02H27.8072V24.0469H27.8361V24.0738H27.865V24.1007H27.894V24.1276H27.9229V24.1545H27.9518V24.1814H27.9808V24.2083H28.0097V24.2352H28.0386V24.2621H28.0676V24.289H28.0965V24.3159H28.1254V24.3428H28.1544V24.3697H28.1833V24.3966H28.2123V24.4234H28.2412V24.4503H28.2701V24.4772H28.2991V24.5041H28.328V24.531H28.3569V24.5579H28.3859V24.5848H28.4148V24.6117H28.4437V24.6386H28.4727V24.6655H28.5016V24.6924H28.5305V24.7193H28.5595V24.7462H28.5884V24.7731H28.6174V24.8H28.6463V24.8269H28.6752V24.8538H28.7042V24.8807H28.7331V24.9076H28.762V24.9345H28.791V24.9614H28.8199V24.9883H28.8488V25.0152H28.8778V25.0421H28.9067V25.069H28.9356V25.0958H28.9646V25.1227H28.9935V25.1496H29.0224V25.1765H29.0514V25.2034H29.0803V25.2303H29.1093V25.2572H29.1382V25.2841H29.1671V25.311H29.1961V25.3379H29.225V25.3648H29.2539V25.3917H29.2829V25.4186H29.3118V25.4455H29.3407V25.4724H29.3697V25.4993H29.3986V25.5262H29.4275V25.5531H29.4565V25.58H29.4854V25.6069H29.5144V25.6338H29.5433V25.6607H29.5722V25.6876H29.6012V25.7145H29.659V25.7414H29.688V25.7682H29.7169V25.7951H29.7458V25.822H29.7748V25.8489H29.8037V25.8758H29.8326V25.9027H29.8616V25.9296H29.8905V25.9565H29.9195V25.9834H29.9484V26.0103H29.9773V26.0372H30.0063V26.0641H30.0352V26.091H30.0641V26.1179H30.0931V26.1448H30.122V26.1717H30.1509V26.1986H30.1799V26.2255H30.2088V26.2524H30.2377V26.2793H30.2667V26.3062H30.2956V26.3331H30.3246V26.36H30.3535V26.3869H30.3824V26.4138H30.4114V26.4407H30.4403V26.4675H30.4692V26.4944H30.4982V26.5213H30.5271V26.5482H30.556V26.5751H30.585V26.602H30.6139V26.6289H30.6428V26.6558H30.6718V26.6827H30.7007V26.7096H30.7297V26.7365H30.7586V26.7634H30.7875V26.7903H30.8165V26.8172H30.8454V26.8441H30.8743V26.871H30.9033V26.8979H30.9322V26.9248H30.9611V26.9517H30.9901V26.9786H31.019V27.0055H31.0479V27.0324H31.0769V27.0593H31.1058V27.0862H31.1348V27.113H31.1637V27.1399H31.1926V27.1668H31.2216V27.1937H31.2505V27.2206H31.2794V27.2475H31.3084V27.2744H31.3373V27.3013H31.3662V27.3282H31.3952V27.3551H31.4241V27.382H31.453V27.4089H31.482V27.4358H31.5109V27.4627H31.5399V27.4896H31.5688V27.5165H31.5977V27.5434H31.6267V27.5703H31.6556V27.5972H31.6845V27.6241H31.7135V27.651H31.7424V27.6779H31.7713V27.7048H31.8003V27.7317H31.8292V27.7586H31.8581V27.7854H31.8871V27.8123H31.916V27.8392H31.945V27.8661H31.9739V27.893H32.0028V27.9199H32.0318V27.9468H32.0607V27.9737H32.0896V28.0006H32.0607V28.0275H32.0318V28.0544H31.9739V28.0813H31.916V28.1082H31.8581V28.1351H31.8292V28.162H31.7713V28.1889H31.7135V28.2158H31.6845V28.2427H31.6267V28.2696H31.5688V28.2965H31.5109V28.3234H31.482V28.3503H31.4241V28.3772H31.3662V28.4041H31.3084V28.431H31.2794V28.4579H31.2216V28.4847H31.1637V28.5116H31.1348V28.5385H31.0769V28.5654H31.019V28.5923H30.9611V28.6192H30.9322V28.6461H30.8743V28.673H30.8165V28.6999H30.7586V28.7268H30.7297V28.7537H30.6718V28.7806H30.6139V28.8075H30.556V28.8344H30.5271V28.8613H30.4692V28.8882H30.4114V28.9151H30.3824V28.942H30.3246V28.9689H30.2667V28.9958H30.2088V29.0227H30.1799V29.0496H30.122V29.0765H30.0641V29.1034H30.0063V29.1303H29.9773V29.1571H29.9195V29.184H29.8616V29.2109H29.8037V29.2378H29.7748V29.2647H29.7169V29.2916H29.659V29.3185H29.6301V29.3454H29.5722V29.3723H29.5144V29.3992H29.4565V29.4261H29.4275V29.453H29.3697V29.4799H29.3118V29.5068H29.2539V29.5337H29.225V29.5606H29.1671V29.5875H29.1093V29.6144H29.0514V29.6413H29.0224V29.6682H28.9646V29.6951H28.9067V29.722H28.8778V29.7489H28.8199V29.7758H28.762V29.8027H28.7042V29.8295H28.6752V29.8564H28.6174V29.8833H28.5595V29.9102H28.5016V29.9371H28.4727V29.964H28.4148V29.9909H28.3569V30.0178H28.328V30.0447H28.2701V30.0716H28.2123V30.0985H28.1544V30.1254H28.1254V30.1523H28.0676V30.1792H28.0097V30.2061H27.9518V30.233H27.9229V30.2599H27.865V30.2868H27.8072V30.3137H27.7493V30.3406H27.7203V30.3675H27.6625V30.3944H27.6046V30.4213H27.5757V30.4482H27.5178V30.4751H27.4599V30.5019H27.4021V30.5288H27.3731V30.5557H27.3152V30.5826H27.2574V30.6095H27.1995V30.6364H27.1706V30.6633H27.1127V30.6902H27.0548V30.7171H26.997V30.744H26.968V30.7709H26.9101V30.7978H26.8523V30.8247H26.8233V30.8516H26.7655V30.8785H26.7076V30.9054H26.6497V30.9323H26.6208V30.9592H26.5629V30.9861H26.5051V31.013H26.4472V31.0399H26.4182V31.0668H26.3604V31.0937H26.3025V31.1206H26.2446V31.1475H26.2157V31.1743H26.1578V31.2012H26.1V31.2281H26.071V31.255H26.0131V31.2819H25.9553V31.3088H25.8974V31.3357H25.8685V31.3626H25.8106V31.3895H25.7527V31.4164H25.6949V31.4433H25.6659V31.4702H25.608V31.4971H25.5502V31.524H25.5212V31.5509H25.4634V31.5778H25.4055V31.6047H25.3476V31.6316H25.3187V31.6585H25.2608V31.6854H25.2029V31.7123H25.1451V31.7392H25.1161V31.7661H25.0583V31.793H25.0004V31.8199H24.9425V31.8468H24.9136V31.8736H24.8557V31.9005H24.7978V31.9274H24.7689V31.9543H24.711V31.9812H24.6532V32.0081H24.5953V32.035H24.5664V32.0619H24.5085V32.0888H24.4506V32.1157H24.3927V32.1426H24.3638V32.1695H24.3059V32.1964H24.2481V32.2233H24.1902V32.2502H24.1613V32.2771H24.1034V32.304H24.0455V32.3309H24.0166V32.3578H23.9587V32.3847H23.9008V32.4116H23.843V32.4385H23.814V32.4654H23.7562V32.4923H23.6983V32.5192H23.6404V32.546H23.6115V32.5729H23.5536V32.5998H23.4957V32.6267H23.4379V32.6536H23.4089V32.6805H23.3511V32.7074H23.2932V32.7343H23.2643V32.7612H23.2064V32.7881H23.1485V32.815H23.0906V32.8419H23.0617V32.8688H23.0038V32.8957H22.946V32.9226H22.8881V32.9495H22.8592V32.9764H22.8013V33.0033H22.7434V33.0302H22.7145V33.0571H22.6566V33.084H22.5987V33.1109H22.5409V33.1378H22.5119V33.1647H22.4541V33.1916H22.3962V33.2184H22.3383V33.2453H22.3094V33.2722H22.2515V33.2991H22.1936V33.326H22.1358V33.3529H22.1068V33.3798H22.049V33.4067H21.9911V33.4336H21.9622V33.4605H21.9043V33.4874H21.8464V33.5143H21.7885V33.5412H21.7596V33.5681H21.7017V33.595H21.6439V33.6219H21.586V33.6488H21.5571V33.6757H21.4992V33.7026H21.4413V33.7295H21.3834V33.7564H21.3545V33.7833H21.2966V33.8102H21.2388V33.8371H21.2098V33.864H21.152V33.8908H21.0941V33.9177H21.0362V33.9446H21.0073V33.9715H20.9494V33.9984H20.8915V34.0253H20.8337V34.0522H20.8047V34.0791H20.7469V34.106H20.689V34.1329H20.6601V34.1598H20.6022V34.1867H20.5443V34.2136H20.4864V34.2405H20.4575V34.2674H20.3996V34.2943H20.3418V34.3212H20.2839V34.3481H20.255V34.375H20.1971V34.4019H20.1392V34.4288H20.0813V34.4557H20.0524V34.4826H19.9945V34.5095H19.9367V34.5364H19.9077V34.5632H19.8499V34.5901H19.792V34.617H19.7341V34.6439H19.7052V34.6708H19.6473V34.6977H19.5894V34.7246H19.5316V34.7515H19.5026V34.7784H19.4448V34.8053H19.3869V34.8322H19.329V34.8591H19.3001V34.886H19.2422V34.9129H19.1843V34.9398H19.1554V34.9667H19.0975V34.9936H19.0397V35.0205H18.9818V35.0474H18.9528V35.0743H18.895V35.1012H18.8371V35.1281H18.7792V35.155H18.7503V35.1819H18.6924V35.2088H18.6346V35.2357H18.6056V35.2625H18.5477V35.2894H18.4899V35.3163H18.432V35.3432H18.4031V35.3701H18.3452V35.397H18.2873V35.4239H18.2295V35.4508H18.2005V35.4777H18.1426V35.5046H18.0848V35.5315H18.0269V35.5584H17.998V35.5853H17.9401V35.6122H17.8822V35.6391H17.8533V35.666H17.7954V35.6929H17.7376V35.7198H17.6797V35.7467H17.6507V35.7736H17.5929V35.8005H17.535V35.8274H17.4771V35.8543H17.4482V35.8812H17.3903V35.9081H17.3325V35.9349H17.2746V35.9618H17.2456V35.9887H17.1878V36.0156H17.1299V36.0425H17.101V36.0694H17.0431V36.0963H16.9852V36.1232H16.9274V36.1501H16.8984V36.177H16.8405V36.2039H16.7827V36.2308H16.7248V36.2577H16.6959V36.2846H16.638V36.3115H16.5801V36.3384H16.5223V36.3653H16.4933V36.3922H16.4354V36.4191H16.3776V36.446H16.3486V36.4729H16.2908V36.4998H16.2329V36.5267H16.175V36.5536H16.1461V36.5805H16.0882V36.6073H16.0303V36.6342H15.9725V36.6611H15.9435V36.688H15.8857V36.7149H15.8278V36.7418H15.7989V36.7687H15.741V36.7956H15.6831V36.8225H15.6252V36.8494H15.5963V36.8763H15.5384V36.9032H15.4806V36.9301H15.4227V36.957H15.3938V36.9839H15.3359V37.0108H15.278V37.0377H15.2202V37.0646H15.1912V37.0915H15.1333V37.1184H15.0755V37.1453H15.0465V37.1722H14.9887V37.1991H14.9308V37.226H14.8729V37.2529H14.844V37.2797H14.7861V37.3066H14.7282V37.3335H14.6704V37.3604H14.6414V37.3873H14.5836V37.4142H14.5257V37.4411H14.4678V37.468H14.4389V37.4949H14.381V37.5218H14.3231V37.5487H14.2942V37.5756H14.2363V37.6025H14.1785V37.6294H14.1206V37.6563H14.0917V37.6832H14.0338V37.7101H13.9759V37.737H13.918V37.7639H13.8891V37.7908H13.8312V37.8177H13.7734V37.8446H13.7444V37.8715H13.6866V37.8984H13.6287V37.9253H13.5708V37.9521H13.5419V37.979H13.484V38.0059H13.4261V38.0328H13.3683V38.0597H13.3393V38.0866H13.2815V38.1135H13.2236V38.1404H13.1657V38.1673H13.1368V38.1942H13.0789V38.2211H13.021V38.248H12.9921V38.2749H12.9342V38.3018H12.8764V38.3287H12.8185V38.3556H12.7896V38.3825H12.7317V38.4094H12.6738V38.4363H12.6159V38.4632H12.587V38.4901H12.5291V38.517H12.4713V38.5439H12.4134V38.5708H12.3845V38.5977H12.3266V38.6245H12.2687V38.6514H12.2398V38.6783H12.1819V38.7052H12.0951V38.7321H12.0372V38.759H11.9215V38.7859" fill="url(#paint2_linear_7_239)"/>
<path d="M32.0318 28.0006V27.9737H32.0028V27.9469H31.9739V27.92H31.945V27.8931H31.916V27.8662H31.8871V27.8393H31.8581V27.8124H31.8292V27.7855H31.8003V27.7586H31.7713V27.7317H31.7424V27.7048H31.7135V27.6779H31.6845V27.651H31.6556V27.6241H31.6267V27.5972H31.5977V27.5703H31.5688V27.5434H31.5399V27.5165H31.5109V27.4896H31.482V27.4627H31.453V27.4358H31.4241V27.4089H31.3952V27.382H31.3662V27.3551H31.3373V27.3282H31.3084V27.3013H31.2794V27.2745H31.2505V27.2476H31.2216V27.2207H31.1926V27.1938H31.1637V27.1669H31.1348V27.14H31.1058V27.1131H31.0769V27.0862H31.0479V27.0593H31.019V27.0324H30.9901V27.0055H30.9611V26.9786H30.9322V26.9517H30.9033V26.9248H30.8743V26.8979H30.8454V26.871H30.8165V26.8441H30.7875V26.8172H30.7586V26.7903H30.7297V26.7634H30.7007V26.7365H30.6718V26.7096H30.6428V26.6827H30.6139V26.6558H30.585V26.6289H30.556V26.602H30.5271V26.5752H30.4982V26.5483H30.4692V26.5214H30.4403V26.4945H30.4114V26.4676H30.3824V26.4407H30.3535V26.4138H30.3246V26.3869H30.2956V26.36H30.2667V26.3331H30.2377V26.3062H30.2088V26.2793H30.1799V26.2524H30.1509V26.2255H30.122V26.1986H30.0931V26.1717H30.0641V26.1448H30.0352V26.1179H30.0063V26.091H29.9773V26.0641H29.9484V26.0372H29.9195V26.0103H29.8905V25.9834H29.8616V25.9565H29.8326V25.9296H29.8037V25.9028H29.7748V25.8759H29.7458V25.849H29.7169V25.8221H29.688V25.7952H29.659V25.7683H29.6301V25.7414H29.6012V25.7145L29.5433 25.7145V25.6876H29.5144V25.6607H29.4854V25.6338H29.4565V25.6069H29.4275V25.58H29.3986V25.5531H29.3697V25.5262H29.3407V25.4993H29.3118V25.4724H29.2829V25.4455H29.2539V25.4186H29.225V25.3917H29.1961V25.3648H29.1671V25.3379H29.1382V25.311H29.1093V25.2841H29.0803V25.2572H29.0514V25.2304H29.0225V25.2035H28.9935V25.1766H28.9646V25.1497H28.9356V25.1228H28.9067V25.0959H28.8778V25.069H28.8488V25.0421H28.8199V25.0152H28.791V24.9883H28.762V24.9614H28.7331V24.9345H28.7042V24.9076H28.6752V24.8807H28.6463V24.8538H28.6174V24.8269H28.5884V24.8H28.5595V24.7731H28.5305V24.7462H28.5016V24.7193H28.4727V24.6924H28.4437V24.6655H28.4148V24.6386H28.3859V24.6117H28.3569V24.5848H28.328V24.558H28.2991V24.5311H28.2701V24.5042H28.2412V24.4773H28.2123V24.4504H28.1833V24.4235H28.1544V24.3966H28.1254V24.3697H28.0965V24.3428H28.0676V24.3159H28.0386V24.289H28.0097V24.2621H27.9808V24.2352H27.9518V24.2083H27.9229V24.1814H27.894V24.1545H27.865V24.1276H27.8361V24.1007H27.8072V24.0738H27.7782V24.0469H27.7493V24.02H27.7203V23.9931H27.6914V23.9662H27.6625V23.9393L27.6335 23.9393L27.6335 23.9124L27.6046 23.9125V23.8856L27.6335 23.8856L27.6335 23.8586L27.6625 23.8587V23.8318H27.6914V23.8049H27.7203V23.778H27.7493V23.7511H27.7782V23.7242H27.8072V23.6973H27.8361V23.6704H27.865V23.6435H27.894V23.6166H27.9229V23.5897H27.9518V23.5628H27.9808V23.5359H28.0097V23.509H28.0386V23.4821H28.0676V23.4552H28.0965V23.4283H28.1254V23.4014H28.1544V23.3745H28.1833V23.3476H28.2123V23.3207H28.2412V23.2938H28.2701V23.2669H28.2991V23.24H28.328V23.2132H28.3569V23.1863H28.3859V23.1594H28.4148V23.1325H28.4437V23.1056H28.4727V23.0787H28.5016V23.0518H28.5305V23.0249H28.5595V22.998H28.5884V22.9711H28.6174V22.9442H28.6463V22.9173H28.6752V22.8904H28.7042V22.8635H28.7331V22.8366H28.762V22.8097H28.791V22.7828H28.8199V22.7559H28.8488V22.729H28.8778V22.7021H28.9067V22.6752H28.9356V22.6483H28.9646V22.6214H28.9935V22.5945H29.0225V22.5676H29.0514V22.5407H29.0803V22.5139H29.1093V22.487H29.1382V22.4601L29.1961 22.4601L29.1961 22.4332H29.225V22.4063H29.2539V22.3794H29.2829V22.3525H29.3118V22.3256H29.3407V22.2987H29.3697V22.2718H29.3986V22.2449H29.4275V22.218H29.4565V22.1911H29.4854V22.1642H29.5144V22.1373H29.5433V22.1104H29.5722V22.0835H29.6012V22.0566H29.6301V22.0297H29.659V22.0028H29.688V21.9759H29.7169V21.949H29.7458V21.9221H29.7748V21.8952H29.8037V21.8683H29.8326V21.8415H29.8616V21.8146H29.8905V21.7877H29.9195V21.7608H29.9484V21.7339H29.9773V21.707H30.0063V21.6801H30.0352V21.6532H30.0641V21.6263H30.0931V21.5994H30.122V21.5725H30.1509V21.5456H30.1799V21.5187H30.2088V21.4918H30.2377V21.4649H30.2667V21.438H30.2956V21.4111H30.3246V21.3842H30.3535V21.3573H30.3824V21.3304H30.4114V21.3035H30.4403V21.2766H30.4692V21.2497H30.4982V21.2228H30.5271V21.1959H30.556V21.1691H30.585V21.1422H30.6139V21.1153H30.6428V21.0884H30.6718V21.0615H30.7007V21.0346H30.7297V21.0077H30.7586V20.9808H30.7875V20.9539H30.8165V20.927H30.8454V20.9001H30.8743V20.8732H30.9033V20.8463H30.9322V20.8194H30.9611V20.7925H30.9901V20.7656H31.019V20.7387H31.0479V20.7118H31.0769V20.6849H31.1058V20.658H31.1348V20.6311H31.1637V20.6042H31.1926V20.5773H31.2216V20.5504H31.2505V20.5235H31.2794V20.4967H31.3084V20.4698H31.3373V20.4429H31.3662V20.416H31.3952V20.3891H31.4241V20.3622H31.453V20.3353H31.482V20.3084H31.5109V20.2815H31.5399V20.2546H31.5688V20.2277H31.5977V20.2008H31.6267V20.1739H31.6556V20.147H31.6845V20.1201H31.7135V20.0932H31.7424V20.0663H31.7713V20.0394H31.8003V20.0125H31.8292V19.9856H31.8581V19.9587H31.8871V19.9318H31.916V19.9049H31.945V19.878H31.9739V19.8511H32.0028V19.8243H32.0318V19.7974H32.1186V19.8243H32.1764V19.8511H32.2054V19.878H32.2632V19.9049H32.3211V19.9318H32.379V19.9587H32.4079V19.9856H32.4658V20.0125H32.5237V20.0394H32.5526V20.0663H32.6105V20.0932H32.6683V20.1201H32.7262V20.147H32.7551V20.1739H32.813V20.2008H32.8709V20.2277H32.9288V20.2546H32.9577V20.2815H33.0156V20.3084H33.0734V20.3353H33.1024V20.3622H33.1602V20.3891H33.2181V20.416H33.276V20.4429H33.3049V20.4698H33.3628V20.4967H33.4207V20.5235H33.4496V20.5504H33.5075V20.5773H33.5653V20.6042H33.6232V20.6311H33.6522V20.658H33.71V20.6849H33.7679V20.7118H33.8258V20.7387H33.8547V20.7656H33.9126V20.7925H33.9704V20.8194H33.9994V20.8463H34.0573V20.8732H34.1151V20.9001H34.173V20.927H34.2019V20.9539H34.2598V20.9808H34.3177V21.0077H34.3466V21.0346H34.4045V21.0615H34.4623V21.0884H34.5202V21.1153H34.5492V21.1422H34.607V21.1691H34.6649V21.1959H34.7228V21.2228H34.7517V21.2497H34.8096V21.2766H34.8674V21.3035H34.8964V21.3304H34.9543V21.3573H35.0121V21.3842H35.07V21.4111H35.0989V21.438H35.1568V21.4649H35.2147V21.4918H35.2725V21.5187H35.3015V21.5456H35.3594V21.5725H35.4172V21.5994H35.4462V21.6263H35.504V21.6532H35.5619V21.6801H35.6198V21.707H35.6487V21.7339H35.7066V21.7608H35.7645V21.7877H35.8223V21.8146H35.8513V21.8415H35.9091V21.8683H35.967V21.8952H35.9959V21.9221H36.0538V21.949H36.1117V21.9759H36.1696V22.0028H36.1985V22.0297H36.2564V22.0566H36.3142V22.0835H36.3721V22.1104H36.401V22.1373H36.4589V22.1642H36.5168V22.1911H36.5747V22.218H36.6036V22.2449H36.6615V22.2718H36.7193V22.2987H36.7483V22.3256H36.8061V22.3525H36.864V22.3794H36.9219V22.4063H36.9508V22.4332H37.0087V22.4601H37.0666V22.487H37.1244V22.5139H37.1534V22.5407H37.2112V22.5676H37.2691V22.5945H37.327V22.6214H37.3559V22.6483H37.4138V22.6752H37.4717V22.7021H37.5006V22.729H37.5585V22.7559H37.6163V22.7828H37.6742V22.8097H37.7031V22.8366H37.761V22.8635H37.8189V22.8904H37.8768V22.9173H37.9057V22.9442H37.9636V22.9711H38.0214V22.998H38.0793V23.0249H38.1082V23.0518H38.1661V23.0787H38.224V23.1056H38.2819V23.1325H38.3108V23.1594H38.3687V23.1863H38.4265V23.2132H38.4844V23.24H38.5423V23.2669H38.5712V23.2938H38.6291V23.3207H38.658V23.3476H38.7159V23.3745H38.7448V23.4014H38.7738V23.4283H38.8027V23.4552H38.8316V23.4821H38.8606V23.509H38.8895V23.5359H38.9184V23.5628H38.9474V23.6166H38.9763V23.6704H39.0052V23.7511H39.0342V24.0469H39.0052V24.1007H38.9763V24.1545H38.9474V24.2083H38.9184V24.2621H38.8895V24.289H38.8606V24.3159H38.8316V24.3428H38.8027V24.3697H38.7738V24.3966H38.7448V24.4235H38.7159V24.4504H38.658V24.4773H38.6291V24.5042H38.5712V24.5311H38.5423V24.558H38.4844V24.5848H38.4265V24.6117H38.3976V24.6386H38.3397V24.6655H38.2819V24.6924H38.224V24.7193H38.195V24.7462H38.1372V24.7731H38.0793V24.8H38.0504V24.8269H37.9925V24.8538H37.9346V24.8807H37.8768V24.9076H37.8478V24.9345H37.79V24.9614H37.7321V24.9883H37.6742V25.0152H37.6453V25.0421H37.5874V25.069H37.5295V25.0959H37.5006V25.1228H37.4427V25.1497H37.3849V25.1766H37.327V25.2035H37.298V25.2304H37.2402V25.2572H37.1823V25.2841H37.1244V25.311H37.0955V25.3379H37.0376V25.3648H36.9798V25.3917H36.9219V25.4186H36.8929V25.4455H36.8351V25.4724H36.7772V25.4993H36.7483V25.5262H36.6904V25.5531H36.6325V25.58H36.5747V25.6069H36.5457V25.6338H36.4878V25.6607H36.43V25.6876H36.3721V25.7145H36.3432V25.7414H36.2853V25.7683H36.2274V25.7952H36.1696V25.8221H36.1406V25.849H36.0827V25.8759H36.0249V25.9028H35.9959V25.9296H35.9381V25.9565H35.8802V25.9834H35.8223V26.0103H35.7934V26.0372H35.7355V26.0641H35.6776V26.091H35.6198V26.1179H35.5908V26.1448H35.533V26.1717H35.4751V26.1986H35.4172V26.2255H35.3883V26.2524H35.3304V26.2793H35.2725V26.3062H35.2436V26.3331H35.1857V26.36H35.1279V26.3869H35.07V26.4138H35.0411V26.4407H34.9832V26.4676H34.9253V26.4945H34.8674V26.5214H34.8385V26.5483H34.7806V26.5752H34.7228V26.602H34.6649V26.6289H34.636V26.6558H34.5781V26.6827H34.5202V26.7096H34.4913V26.7365H34.4334V26.7634H34.3755V26.7903H34.3177V26.8172H34.2887V26.8441H34.2309V26.871H34.173V26.8979H34.1151V26.9248H34.0862V26.9517H34.0283V26.9786H33.9704V27.0055H33.9415V27.0324H33.8836V27.0593H33.8258V27.0862H33.7679V27.1131H33.739V27.14H33.6811V27.1669H33.6232V27.1938H33.5653V27.2207H33.5364V27.2476H33.4785V27.2745H33.4207V27.3013H33.3628V27.3282H33.3339V27.3551H33.276V27.382H33.2181V27.4089H33.1892V27.4358H33.1313V27.4627H33.0734V27.4896H33.0156V27.5165H32.9866V27.5434H32.9288V27.5703H32.8709V27.5972H32.813V27.6241H32.7841V27.651H32.7262V27.6779H32.6683V27.7048H32.6105V27.7317H32.5815V27.7586H32.5237V27.7855H32.4658V27.8124H32.4369V27.8393H32.379V27.8662H32.3211V27.8931H32.2632V27.92H32.2343V27.9469H32.1764V27.9737H32.1186V28.0006" fill="url(#paint3_linear_7_239)"/>
<path d="M114.972 21.8116C113.997 21.8116 113.293 22.0625 112.858 22.5636C112.423 23.0652 112.2 23.8629 112.188 24.9576V25.2564C112.188 26.502 112.411 27.3928 112.858 27.9294C113.305 28.4657 114.021 28.7335 115.007 28.7335C115.831 28.7335 116.476 28.4237 116.943 27.804C117.41 27.1843 117.643 26.3296 117.643 25.24C117.643 24.1354 117.41 23.2874 116.943 22.697C116.476 22.1066 115.819 21.8116 114.972 21.8116ZM115.181 29.8573C114.56 29.8573 113.993 29.751 113.48 29.5383C112.967 29.3253 112.536 28.9977 112.188 28.556H112.084C112.153 29.0732 112.188 29.5641 112.188 30.0272V33.6741H110.744V20.8334H111.919L112.118 22.0461H112.188C112.56 21.5609 112.992 21.2107 113.485 20.995C113.977 20.7796 114.543 20.6715 115.181 20.6715C116.445 20.6715 117.421 21.0733 118.108 21.8767C118.795 22.6798 119.139 23.8065 119.139 25.2564C119.139 26.712 118.79 27.8425 118.092 28.6491C117.392 29.4546 116.422 29.8573 115.181 29.8573Z" fill="#FAFAFA"/>
<path d="M122.483 29.6956H121.039V17.1137H122.483V29.6956Z" fill="#FAFAFA"/>
<path d="M127.523 28.7497C128.422 28.7497 129.127 28.5208 129.641 28.0627C130.154 27.6047 130.411 26.963 130.411 26.1375V25.3374L128.966 25.3936C127.818 25.4318 126.991 25.5972 126.483 25.8914C125.976 26.1851 125.722 26.6421 125.722 27.2621C125.722 27.747 125.88 28.1165 126.196 28.3694C126.512 28.6233 126.954 28.7497 127.523 28.7497ZM130.785 29.6956L130.498 28.4339H130.428C129.953 28.9899 129.478 29.3659 129.005 29.5622C128.533 29.7594 127.943 29.8572 127.235 29.8572C126.29 29.8572 125.549 29.631 125.013 29.1781C124.476 28.7252 124.208 28.0816 124.208 27.2459C124.208 25.4563 125.748 24.5184 128.827 24.4318L130.446 24.3831V23.8334C130.446 23.1378 130.285 22.6241 129.963 22.293C129.641 21.9611 129.126 21.7957 128.419 21.7957C127.624 21.7957 126.725 22.0222 125.722 22.4748L125.278 21.4479C125.748 21.2107 126.262 21.0249 126.823 20.8901C127.382 20.7554 127.943 20.6879 128.506 20.6879C129.642 20.6879 130.485 20.9221 131.033 21.3912C131.581 21.8603 131.855 22.6123 131.855 23.6475V29.6956H130.785Z" fill="#FAFAFA"/>
<path d="M132.693 20.8334H134.241L136.329 25.8874C136.787 27.0412 137.072 27.8737 137.182 28.3863H137.252C137.327 28.1106 137.485 27.6408 137.726 26.9745C137.966 26.3086 138.754 24.2621 140.087 20.8334H141.636L137.539 30.9248C137.133 31.9221 136.659 32.6297 136.116 33.0482C135.574 33.4656 134.908 33.6741 134.12 33.6741C133.679 33.6741 133.244 33.6283 132.815 33.5369V32.4616C133.133 32.5261 133.49 32.5587 133.885 32.5587C134.877 32.5587 135.584 32.0415 136.008 31.006L136.538 29.7448L132.693 20.8334Z" fill="#FAFAFA"/>
<path d="M87.5922 26.3651C88.0503 25.9383 88.0896 25.3457 88.0896 25.0117C88.0896 23.6774 87.2326 21.6013 85.5777 21.6013C85.0586 21.6013 84.501 21.842 84.1816 22.2134C83.843 22.6026 83.7426 23.1023 83.7426 23.5849C83.7426 24.8266 84.5204 26.8845 86.2363 26.8845C86.7346 26.8845 87.2719 26.662 87.5922 26.3651ZM87.0135 29.8877C86.8544 29.8683 86.754 29.8683 86.5555 29.8683C86.3761 29.8683 85.2979 29.906 84.4611 30.1663C84.0224 30.3134 82.7458 30.7583 82.7458 32.0751C82.7458 33.3903 84.1226 34.3374 86.2566 34.3374C88.1698 34.3374 89.188 33.4829 89.188 32.3344C89.188 31.3874 88.5297 30.8887 87.0135 29.8877ZM88.4299 21.6567C88.8883 22.0093 89.8452 22.7503 89.8452 24.1596C89.8452 25.5305 89.0078 26.1806 88.1698 26.7914C87.9105 27.0321 87.6116 27.2925 87.6116 27.7008C87.6116 28.1077 87.9105 28.3304 88.1307 28.4974L88.8489 29.0154C89.7262 29.7013 90.5231 30.332 90.5231 31.6117C90.5231 33.3538 88.7083 35.1144 85.2788 35.1144C82.3867 35.1144 80.9914 33.8357 80.9914 32.4632C80.9914 31.7959 81.3488 30.8514 82.5268 30.2018C83.7623 29.4974 85.4388 29.4057 86.3358 29.3487C86.0557 29.0154 85.7372 28.6631 85.7372 28.0894C85.7372 27.7747 85.8373 27.5891 85.9368 27.3656C85.7166 27.3845 85.4976 27.403 85.2979 27.403C83.1848 27.403 81.988 25.9383 81.988 24.4931C81.988 23.6403 82.4073 22.6946 83.2637 22.0093C84.4009 21.1381 85.7571 20.9894 86.8347 20.9894H90.9421L89.6655 21.6567H88.4299Z" fill="#FAFAFA"/>
<path d="M78.3635 28.0921C78.8421 27.4993 78.9616 26.7594 78.9616 26.0369C78.9616 24.4081 78.1256 21.2992 75.6563 21.2992C74.9997 21.2992 74.3426 21.5405 73.8649 21.9296C73.0882 22.5765 72.9482 23.3909 72.9482 24.1878C72.9482 26.0187 73.9239 29.0345 76.3337 29.0345C77.11 29.0345 77.9066 28.6835 78.3635 28.0921ZM75.875 29.5907C72.7098 29.5907 71.0173 27.2957 71.0173 25.2225C71.0173 22.7979 73.1473 20.726 76.1748 20.726C79.1005 20.726 80.9324 22.8535 80.9324 25.0937C80.9324 27.2766 79.1213 29.5907 75.875 29.5907Z" fill="#FAFAFA"/>
<path d="M67.5725 28.0921C68.0503 27.4993 68.17 26.7594 68.17 26.0369C68.17 24.4081 67.3335 21.2992 64.8641 21.2992C64.2079 21.2992 63.5502 21.5405 63.0727 21.9296C62.2961 22.5765 62.1569 23.3909 62.1569 24.1878C62.1569 26.0187 63.1321 29.0345 65.5421 29.0345C66.3187 29.0345 67.1148 28.6835 67.5725 28.0921ZM65.0835 29.5907C61.9176 29.5907 60.2252 27.2957 60.2252 25.2225C60.2252 22.7979 62.356 20.726 65.3824 20.726C68.3089 20.726 70.1406 22.8535 70.1406 25.0937C70.1406 27.2766 68.3292 29.5907 65.0835 29.5907Z" fill="#FAFAFA"/>
<path d="M58.704 29.3008L55.8414 29.9148C54.68 30.0826 53.6394 30.2303 52.539 30.2303C47.0135 30.2303 44.9124 26.453 44.9124 23.4945C44.9124 19.8853 47.8946 16.537 52.9997 16.537C54.081 16.537 55.1209 16.6855 56.0616 16.9275C57.5631 17.3183 58.2634 17.8016 58.704 18.0811L57.0423 19.551L56.342 19.6992L56.8423 18.9547C56.162 18.3412 54.9201 17.2064 52.559 17.2064C49.3957 17.2064 47.0135 19.4402 47.0135 22.6962C47.0135 26.1929 49.7363 29.4866 54.0992 29.4866C55.3817 29.4866 56.0408 29.2448 56.6418 29.0211V26.0259L53.6198 26.1746L55.2202 25.374H59.4642L58.9442 25.8387C58.8033 25.9509 58.7839 25.9885 58.7437 26.1362C58.7229 26.304 58.704 26.8438 58.704 27.0299V29.3008Z" fill="#FAFAFA"/>
<path d="M94.7567 28.765C94.0958 28.7091 93.9575 28.598 93.9575 27.8715V17.3404C93.9615 17.3003 93.9644 17.2594 93.9685 17.2204C94.0492 16.5695 94.2489 16.4579 94.8704 16.1225H92.0066L90.5049 16.7925H92.0353V16.8011L92.0341 16.7941V28.2812C92.0341 28.6526 91.9551 28.7091 91.4942 29.2666H95.0377L95.7781 28.8586C95.4384 28.8201 95.0976 28.8021 94.7567 28.765Z" fill="#FAFAFA"/>
<path d="M101.034 23.4289C101.411 23.3 101.61 23.189 101.61 22.9305C101.61 22.1919 100.716 21.3412 99.6416 21.3412C98.8456 21.3412 97.3557 21.9144 97.3557 23.9095C97.3557 24.2237 97.3953 24.5563 97.4162 24.8899L101.034 23.4289ZM102.902 28.9361C102.684 29.0472 102.465 29.1771 102.248 29.2688C101.59 29.5458 100.914 29.6201 100.317 29.6201C99.6827 29.6201 98.6879 29.5819 97.6731 28.899C96.2628 27.9746 95.6465 26.3853 95.6465 24.9999C95.6465 22.136 98.1514 20.732 100.199 20.732C100.914 20.732 101.651 20.898 102.248 21.2498C103.24 21.8581 103.499 22.6527 103.637 23.0779L98.9668 24.8342L97.4359 24.945C97.9321 27.2914 99.6416 28.658 101.531 28.658C102.544 28.658 103.28 28.3258 103.956 28.0122L102.902 28.9361Z" fill="#FAFAFA"/>
<path d="M104.821 20.8581V22.0776H104.662V20.8581H104.228V20.732H105.255V20.8581H104.821Z" fill="#FAFAFA"/>
<path d="M106.609 22.0776V20.8471H106.602L106.198 22.0776H106.073L105.665 20.8471H105.661V22.0776H105.516V20.732H105.764L106.133 21.8196H106.138L106.501 20.732H106.752V22.0776H106.609Z" fill="#FAFAFA"/>
<path d="M47.4518 11.2815C47.0977 10.2877 46.9203 9.75033 46.9203 9.66937H46.8705C46.8705 9.74441 46.6874 10.2818 46.3205 11.2815H47.4518ZM48.8879 12.9138H47.8934C47.8934 12.7869 47.7988 12.4267 47.6104 11.8334H46.1743C45.9796 12.4171 45.8821 12.7772 45.8821 12.9138H44.9466C44.9466 12.8388 45.1885 12.2223 45.6723 11.0647C46.1561 9.9074 46.3983 9.2697 46.3983 9.15216H47.5731C47.5731 9.2619 47.7921 9.89018 48.2305 11.0373C48.6689 12.1841 48.8879 12.81 48.8879 12.9138Z" fill="#FBFCFC"/>
<path d="M52.8961 12.9138H52.1281C52.1281 12.8348 51.8431 12.4181 51.2734 11.6629C50.6767 10.8673 50.3367 10.3235 50.254 10.0306H50.2042C50.256 10.4523 50.2818 10.8337 50.2818 11.1747C50.2818 11.6503 50.2962 12.2301 50.3254 12.9138H49.5607C49.5919 12.317 49.6073 11.661 49.6073 10.9464C49.6073 10.2433 49.5919 9.64517 49.5607 9.15216H50.484C50.484 9.25437 50.7398 9.66184 51.2517 10.3743C51.7965 11.1312 52.1096 11.6446 52.1904 11.9144H52.2369C52.1872 11.4849 52.1626 11.0994 52.1626 10.7587C52.1626 10.2366 52.1478 9.70111 52.1189 9.15216H52.8961C52.8669 9.62983 52.8524 10.228 52.8524 10.9464C52.8524 11.6704 52.8669 12.3264 52.8961 12.9138Z" fill="#FBFCFC"/>
<path d="M56.5527 11.0274C56.5527 10.6576 56.4366 10.3461 56.2046 10.0925C55.9725 9.83938 55.6181 9.71269 55.1415 9.71269C55.0524 9.71269 54.93 9.72131 54.7746 9.73879C54.7954 10.1239 54.8058 10.5263 54.8058 10.9464C54.8058 11.4069 54.816 11.8633 54.8368 12.316C54.9716 12.341 55.1062 12.3533 55.241 12.3533C55.6863 12.3533 56.0165 12.2248 56.2309 11.9677C56.4453 11.7105 56.5527 11.3972 56.5527 11.0274ZM57.4011 10.9031C57.4011 11.4502 57.2127 11.9276 56.8354 12.3361C56.4583 12.7447 55.93 12.9486 55.2503 12.9486C54.9436 12.9486 54.5208 12.937 53.982 12.9139C54.0089 12.3321 54.0225 11.6764 54.0225 10.9464C54.0225 10.2455 54.0089 9.64734 53.982 9.15218H54.526C54.6151 9.15218 54.7477 9.14923 54.9239 9.14358C55.0998 9.13766 55.215 9.13497 55.2688 9.13497C56.0168 9.13497 56.5593 9.30818 56.8961 9.65487C57.2327 10.0016 57.4011 10.4176 57.4011 10.9031Z" fill="#FBFCFC"/>
<path d="M60.3898 10.256C60.3898 9.87271 60.1245 9.68094 59.5941 9.68094C59.3991 9.68094 59.2272 9.69439 59.0779 9.72128C59.1007 10.0201 59.1123 10.409 59.1123 10.8886C59.226 10.8926 59.3224 10.8945 59.4014 10.8945C60.0603 10.8945 60.3898 10.6817 60.3898 10.256ZM61.5554 12.9138H60.6352C60.3948 12.232 60.2104 11.8114 60.082 11.6513C59.9535 11.4913 59.7463 11.4114 59.4604 11.4114C59.34 11.4114 59.2252 11.4125 59.1152 11.4144C59.1152 11.9095 59.1248 12.4093 59.1433 12.9138H58.2793C58.3059 12.3321 58.3195 11.6764 58.3195 10.9464C58.3195 10.2455 58.3059 9.64732 58.2793 9.15216H58.8169C58.8791 9.15216 59.009 9.14921 59.2069 9.14356C59.4049 9.13764 59.5877 9.13494 59.7556 9.13494C60.7067 9.13494 61.1824 9.43725 61.1824 10.0421C61.1824 10.5217 60.9107 10.8558 60.3678 11.0446V11.0879C60.5773 11.1419 60.7605 11.2936 60.9182 11.543C61.0756 11.7923 61.288 12.2495 61.5554 12.9138Z" fill="#FBFCFC"/>
<path d="M65.1532 11.0475C65.1532 10.6449 65.0421 10.3184 64.8205 10.068C64.5988 9.81785 64.3251 9.69252 63.9999 9.69252C63.6972 9.69252 63.4405 9.81867 63.229 10.071C63.0178 10.3235 62.9119 10.642 62.9119 11.0274C62.9119 11.4279 63.0233 11.7538 63.2461 12.005C63.4689 12.2565 63.742 12.3824 64.0652 12.3824C64.3676 12.3824 64.6246 12.2557 64.8361 12.0024C65.0473 11.749 65.1532 11.4308 65.1532 11.0475ZM66.0109 10.9636C66.0109 11.5551 65.8161 12.0454 65.4267 12.4343C65.0369 12.8232 64.5551 13.0179 63.9813 13.0179C63.4342 13.0179 62.9761 12.8394 62.6075 12.4819C62.2385 12.1247 62.0542 11.6705 62.0542 11.1196C62.0542 10.5284 62.2487 10.0381 62.6384 9.64922C63.0279 9.26003 63.5097 9.06558 64.0838 9.06558C64.6309 9.06558 65.0887 9.24362 65.4576 9.6C65.8266 9.95637 66.0109 10.4109 66.0109 10.9636Z" fill="#FBFCFC"/>
<path d="M67.7684 12.9138H66.8888C66.9157 12.317 66.9293 11.661 66.9293 10.9464C66.9293 10.2433 66.9157 9.64517 66.8888 9.15216H67.7684C67.7415 9.63763 67.7279 10.2355 67.7279 10.9464C67.7279 11.6726 67.7415 12.3286 67.7684 12.9138Z" fill="#FBFCFC"/>
<path d="M71.4253 11.0274C71.4253 10.6576 71.309 10.3461 71.0772 10.0925C70.8449 9.83938 70.4907 9.71269 70.0141 9.71269C69.925 9.71269 69.8026 9.72131 69.6472 9.73879C69.6681 10.1239 69.6785 10.5263 69.6785 10.9464C69.6785 11.4069 69.6886 11.8633 69.7094 12.316C69.844 12.341 69.9788 12.3533 70.1137 12.3533C70.559 12.3533 70.8891 12.2248 71.1036 11.9677C71.318 11.7105 71.4253 11.3972 71.4253 11.0274ZM72.2737 10.9031C72.2737 11.4502 72.0853 11.9276 71.708 12.3361C71.331 12.7447 70.8023 12.9486 70.1229 12.9486C69.8162 12.9486 69.3935 12.937 68.8547 12.9139C68.8816 12.3321 68.8952 11.6764 68.8952 10.9464C68.8952 10.2455 68.8816 9.64734 68.8547 9.15218H69.3987C69.4878 9.15218 69.6203 9.14923 69.7965 9.14358C69.9725 9.13766 70.0876 9.13497 70.1414 9.13497C70.8894 9.13497 71.432 9.30818 71.7688 9.65487C72.1053 10.0016 72.2737 10.4176 72.2737 10.9031Z" fill="#FBFCFC"/>
<path d="M76.8146 11.2815C76.4604 10.2877 76.2827 9.75033 76.2827 9.66937H76.2333C76.2333 9.74441 76.0501 10.2818 75.6832 11.2815H76.8146ZM78.2506 12.9138H77.2561C77.2561 12.7869 77.1618 12.4267 76.9728 11.8334H75.5368C75.342 12.4171 75.2448 12.7772 75.2448 12.9138H74.3093C74.3093 12.8388 74.5512 12.2223 75.035 11.0647C75.5188 9.9074 75.7607 9.2697 75.7607 9.15216H76.9355C76.9355 9.2619 77.1549 9.89018 77.5932 11.0373C78.0313 12.1841 78.2506 12.81 78.2506 12.9138Z" fill="#FBFCFC"/>
<path d="M81.0745 10.2963C81.0745 9.88427 80.7802 9.67797 80.1917 9.67797C80.0444 9.67797 79.889 9.69251 79.7255 9.72128C79.7484 10.0855 79.7596 10.4975 79.7596 10.958C79.8114 10.962 79.8716 10.9636 79.9399 10.9636C80.6963 10.9636 81.0745 10.7412 81.0745 10.2963ZM81.8763 10.1374C81.8763 10.5978 81.6925 10.9378 81.3245 11.1573C80.957 11.377 80.5056 11.4867 79.9709 11.4867C79.8737 11.4867 79.8042 11.4849 79.7628 11.4808C79.7628 11.8431 79.7741 12.3205 79.797 12.9138H78.9234C78.9503 12.3574 78.9639 11.7016 78.9639 10.9464C78.9639 10.253 78.9503 9.65485 78.9234 9.15216H79.4645C79.5409 9.15216 79.6882 9.14921 79.9058 9.14356C80.1234 9.13764 80.3117 9.13494 80.4715 9.13494C80.865 9.13494 81.1977 9.21751 81.4692 9.38319C81.7409 9.54914 81.8763 9.80035 81.8763 10.1374Z" fill="#FBFCFC"/>
<path d="M84.8025 10.2963C84.8025 9.88427 84.5083 9.67797 83.9197 9.67797C83.7724 9.67797 83.617 9.69251 83.4536 9.72128C83.4764 10.0855 83.4877 10.4975 83.4877 10.958C83.5395 10.962 83.5997 10.9636 83.668 10.9636C84.4244 10.9636 84.8025 10.7412 84.8025 10.2963ZM85.6043 10.1374C85.6043 10.5978 85.4203 10.9378 85.0528 11.1573C84.6851 11.377 84.2337 11.4867 83.6989 11.4867C83.6014 11.4867 83.5323 11.4849 83.4909 11.4808C83.4909 11.8431 83.5022 12.3205 83.525 12.9138H82.6515C82.6784 12.3574 82.692 11.7016 82.692 10.9464C82.692 10.253 82.6784 9.65485 82.6515 9.15216H83.1923C83.269 9.15216 83.4162 9.14921 83.6338 9.14356C83.8514 9.13764 84.0398 9.13494 84.1995 9.13494C84.593 9.13494 84.9258 9.21751 85.1972 9.38319C85.4686 9.54914 85.6043 9.80035 85.6043 10.1374Z" fill="#FBFCFC"/>
<path d="M90.8417 11.0475C90.8417 10.6449 90.7309 10.3184 90.5089 10.068C90.2873 9.81785 90.0139 9.69252 89.6883 9.69252C89.386 9.69252 89.129 9.81867 88.9175 10.071C88.7063 10.3235 88.6006 10.642 88.6006 11.0274C88.6006 11.4279 88.7118 11.7538 88.9348 12.005C89.1577 12.2565 89.4305 12.3824 89.7537 12.3824C90.0564 12.3824 90.3133 12.2557 90.5246 12.0024C90.7361 11.749 90.8417 11.4308 90.8417 11.0475ZM91.6997 10.9636C91.6997 11.5551 91.5049 12.0454 91.1151 12.4343C90.7254 12.8232 90.2436 13.0179 89.6698 13.0179C89.1226 13.0179 88.6646 12.8394 88.296 12.4819C87.9273 12.1247 87.7427 11.6705 87.7427 11.1196C87.7427 10.5284 87.9374 10.0381 88.3269 9.64922C88.7167 9.26003 89.1985 9.06558 89.7725 9.06558C90.3194 9.06558 90.7775 9.24362 91.1464 9.6C91.515 9.95637 91.6997 10.4109 91.6997 10.9636Z" fill="#FBFCFC"/>
<path d="M95.9127 12.9138H95.145C95.145 12.8348 94.8603 12.4181 94.2903 11.6629C93.6933 10.8673 93.3536 10.3235 93.2706 10.0306H93.2211C93.2726 10.4523 93.2986 10.8337 93.2986 11.1747C93.2986 11.6503 93.3131 12.2301 93.342 12.9138H92.5776C92.6085 12.317 92.6241 11.661 92.6241 10.9464C92.6241 10.2433 92.6085 9.64517 92.5776 9.15216H93.5006C93.5006 9.25437 93.7567 9.66184 94.2686 10.3743C94.8134 11.1312 95.1262 11.6446 95.2072 11.9144H95.2538C95.204 11.4849 95.1792 11.0994 95.1792 10.7587C95.1792 10.2366 95.1647 9.70111 95.1358 9.15216H95.9127C95.8837 9.62983 95.8693 10.228 95.8693 10.9464C95.8693 11.6704 95.8837 12.3264 95.9127 12.9138Z" fill="#FBFCFC"/>
<defs>
<linearGradient id="paint0_linear_7_239" x1="74.0818" y1="45.7341" x2="74.0818" y2="-0.575069" gradientUnits="userSpaceOnUse">
<stop stop-color="#3A7AB6"/>
<stop offset="0.880949" stop-color="#8AD6B6"/>
<stop offset="1" stop-color="#8AD6B6"/>
</linearGradient>
<linearGradient id="paint1_linear_7_239" x1="-3.84193" y1="23.3804" x2="147.883" y2="23.3804" gradientUnits="userSpaceOnUse">
<stop stop-color="#5DC7A6"/>
<stop offset="1" stop-color="#DAED84"/>
</linearGradient>
<linearGradient id="paint2_linear_7_239" x1="72.5533" y1="44.9545" x2="72.5533" y2="-1.39589" gradientUnits="userSpaceOnUse">
<stop stop-color="#EC2D38"/>
<stop offset="1" stop-color="#85379F"/>
</linearGradient>
<linearGradient id="paint3_linear_7_239" x1="78.4962" y1="44.9425" x2="78.4962" y2="0.0433744" gradientUnits="userSpaceOnUse">
<stop stop-color="#F4706E"/>
<stop offset="1" stop-color="#FBC15B"/>
</linearGradient>
</defs>
</svg>
